<?xml version="1.0" encoding="utf-8"?>
<!-- Generator: Adobe Illustrator 27.7.0, SVG Export Plug-In . SVG Version: 6.00 Build 0)  -->
<svg version="1.1" id="CONFETTI" xmlns="http://www.w3.org/2000/svg" xmlns:xlink="http://www.w3.org/1999/xlink" x="0px" y="0px"
	 viewBox="0 0 250 280" style="enable-background:new 0 0 250 280;" xml:space="preserve">
<style type="text/css">
	.st0{fill:#FFE400;}
	.st1{opacity:0;}
	.st2{opacity:1.960000e-02;}
	.st3{opacity:3.920000e-02;}
	.st4{opacity:5.880000e-02;}
	.st5{opacity:7.840000e-02;}
	.st6{opacity:9.800000e-02;}
	.st7{opacity:0.1176;}
	.st8{opacity:0.1373;}
	.st9{opacity:0.1569;}
	.st10{opacity:0.1765;}
	.st11{opacity:0.1961;}
	.st12{opacity:0.2157;}
	.st13{opacity:0.2353;}
	.st14{opacity:0.2549;}
	.st15{opacity:0.2745;}
	.st16{opacity:0.2941;}
	.st17{opacity:0.3137;}
	.st18{opacity:0.3333;}
	.st19{opacity:0.3529;}
	.st20{opacity:0.3725;}
	.st21{opacity:0.3922;}
	.st22{opacity:0.4118;}
	.st23{opacity:0.4314;}
	.st24{opacity:0.451;}
	.st25{opacity:0.4706;}
	.st26{opacity:0.4902;}
	.st27{opacity:0.5098;}
	.st28{opacity:0.5294;}
	.st29{opacity:0.549;}
	.st30{opacity:0.5686;}
	.st31{opacity:0.5882;}
	.st32{opacity:0.6078;}
	.st33{opacity:0.6275;}
	.st34{opacity:0.6471;}
	.st35{opacity:0.6667;}
	.st36{opacity:0.6863;}
	.st37{opacity:0.7059;}
	.st38{opacity:0.7255;}
	.st39{opacity:0.7451;}
	.st40{opacity:0.7647;}
	.st41{opacity:0.7843;}
	.st42{opacity:0.8039;}
	.st43{opacity:0.8235;}
	.st44{opacity:0.8431;}
	.st45{opacity:0.8627;}
	.st46{opacity:0.8824;}
	.st47{opacity:0.902;}
	.st48{opacity:0.9216;}
	.st49{opacity:0.9412;}
	.st50{opacity:0.9608;}
	.st51{opacity:0.9804;}
</style>
<path class="st0" d="M200.4,2c-2-1.3-4.6-1-6.4,0.6c-1.2,1-1.6,2.4-1.9,3.9c-1.1,5.4,5.3,8.2,7.6,12.2c0.5,0.9,1.3,2.5,1,3.6
	s-1.5,1.9-2.4,2.3c-2.4,1-5,0.6-7.5,1.1c-2,0.4-4.1,1.4-4.7,3.5c-0.4,1.3-0.7,2.6-0.1,3.9c1.6,3.3,8.1,4.6,7.1,9.1
	c0.1-0.5,0.3-1,0.4-1.5c-0.9,2.6-4.1,3.1-6.5,3c-2.6-0.1-5.8-0.8-7.8,1.3c-0.9,0.9-1.3,2.5-1.5,3.8c-0.3,2.7,1.7,5.4,4,6.5
	c-0.1,0,0.5-1.5,0.4-1.6c-1.9-0.9-3.4-2.6-3.9-4.7c-0.3-1.2-0.2-1.6,0.6-2.5c0.7-0.7,1.6-1.1,2.6-1.3c3.5-0.7,10,1.7,11.8-2.8
	c0.9-2.4,0.5-4.3-1.5-6.1s-6.3-3.7-5.5-7.1c-0.1,0.4-0.2,0.9-0.3,1.3c1.7-4.5,7.8-3,11.4-4.1c2.9-0.9,4.5-4.3,3.7-7.2
	c-1.2-4.7-6.4-6.6-8.1-10.9c-0.9-2.1-0.3-3.5,1.7-4.7c1.7-1,3.9-1.1,5.6,0C199.8,3.5,200.5,2.1,200.4,2L200.4,2L200.4,2z"/>
<path class="st0" d="M42.6,5.8c3.1,2,5.1,5,5.6,8.7c0.2,1.6,0.2,3.3-0.2,4.9c-0.4,1.7-1.2,3.1-2,4.7c-0.7,1.4-0.9,2.8-0.3,4.3
	c0.4,0.9,0.8,1.8,1.8,2.1c2.7,1,6.1-3.2,8,0.6c-0.2-0.4-0.4-0.8-0.5-1.2c1,2.9-1.5,5.7-3.3,7.7c-1.4,1.5-4.3,3.6-5.8,1
	c0.2,0.4,0.3,0.7,0.5,1.1c-0.6-1.3,0-2.3,1.1-3.1c1.6-1.1,3.3-2.1,5.3-2.4c2.4-0.4,6.3,1,6.5,3.6c0.3,5.6-10.8,6.1-7.8,12.4
	c0.4,0.9,0.9,1.7,1.9,2c1.3,0.5,2.8,0.1,3.9-0.6c1-0.7,2.8-2.8,2.5-4.1c-0.1-0.4-0.4-1-0.6-1.3c-0.7-1.1-2-0.3-2.8,0.5
	c-0.7,0.7-1.1,1.7-1.1,2.7c0,1.3,0.8,3,1.6,3.9c0.8,0.8,1.8,1.3,2.9,1.2c0.9,0,1.2-0.3,1.5-1.2c0.1-0.5,0-0.8-0.1-1.2
	c-0.3-0.7-0.6-1.4-1.4-1.6c-1.9-0.5-2.6,1.7-3,3c-0.1,0.3,0.6,0.9,0.6,1.2c0.3-1.1,0.7-2.5,1.8-3c0.7-0.3,1.6-0.1,2.1,0.6
	c-0.2-0.4-0.4-0.8-0.5-1.2c0.3,0.7,0,1.8-0.7,2.1c-0.5,0.2-1.3,0.1-1.8,0c-0.6-0.2-1.1-0.5-1.6-0.9c-0.2-0.2-0.3-0.3-0.5-0.5
	c-0.1-0.1-0.2-0.2-0.3-0.4c0.1,0.2,0.1,0.2,0-0.1c-0.2-1.1-0.1-2.3,0.6-3.2c0.6-0.9,2.3-2.1,3.1-0.8c-0.2-0.4-0.4-0.8-0.6-1.2
	c0.4,1.2-1.2,3.1-2,3.9c-1,0.9-2.4,1.4-3.8,1.2c-1.4-0.2-2.1-0.9-1.9-2.2c0.2-1.3,1.2-2.5,2.2-3.3c2.1-1.8,5.5-2.8,6.1-5.8
	c0.3-1.5-0.6-3.5-1.6-4.6c-2-2.4-5.2-2.8-8-1.7c-1.9,0.8-5.3,2.3-4.4,4.9c0.6,1.5,1.5,3,3.3,2.5c1.7-0.5,2.9-2,4-3.3
	c1-1.2,2-2.4,2.5-3.9c0.5-1.9-0.4-5.2-2.7-5.6c-2.5-0.4-5.4,2.8-7.3-0.1l0.5,1c-1.2-2.6,1.4-5.3,2.1-7.6c0.7-2.4,0.8-4.9,0.2-7.3
	c-0.9-3.8-3.1-7.5-6.4-9.7C42.3,4.8,42.2,5.6,42.6,5.8L42.6,5.8L42.6,5.8z"/>
<polygon class="st0" points="221.3,9.6 219.3,7.9 218.9,8.9 220.9,10.5 "/>
<polygon class="st0" points="222.3,38.3 219.5,33.1 217.9,34.8 220.7,39.9 "/>
<polygon class="st0" points="174.8,12.8 171.1,15.1 172.4,16.2 176.1,13.9 "/>
<polygon class="st0" points="241.5,171.6 245.1,167.9 243.3,167 239.7,170.7 "/>
<polygon class="st0" points="28.3,67.4 24.1,67 24.5,68.6 28.6,69 "/>
<polygon class="st0" points="30.3,136.1 28.1,138.1 29.1,138.7 31.2,136.7 "/>
<polygon class="st0" points="68.8,6.8 62.6,5.1 62.7,7.6 68.9,9.2 "/>
<polygon class="st0" points="26.5,9.3 25.3,11.6 26.3,11.8 27.5,9.4 "/>
<polygon class="st0" points="226.8,149.4 225.7,150.2 226.2,150.5 227.2,149.7 "/>
<polygon class="st0" points="6.2,167.3 5.1,165.3 4.5,165.9 5.6,167.9 "/>
<polygon class="st0" points="243.2,45.2 245.1,43.9 244.4,43.4 242.5,44.6 "/>
<polygon class="st0" points="28.8,150.7 25.1,149.9 25.3,151.4 28.9,152.1 "/>
<path class="st0" d="M238.1,15.5c2.8-1,5.5,0.1,6.7,2.9c-0.2-0.6-0.3-1.1-0.5-1.7c1.2,4.2-3.9,6.4-2.7,10.5c1.2,4.5,5.1,3.5,8.4,1.2
	c0.2-0.1-0.8-1.9-0.6-2c-2.3,1.7-6,3.6-7.9,0.2c0.2,0.6,0.4,1.3,0.6,1.9c-0.6-2.6,1.7-4.2,2.6-6.3c0.7-1.5,0.5-2.9,0.1-4.4
	c-1-3.3-3.4-5.7-7.2-4.4C237.5,13.5,238.2,15.4,238.1,15.5L238.1,15.5L238.1,15.5z"/>
<path class="st0" d="M0,18.4c1.3,2.3,4.9,2.3,5.9-0.3c0.8-2.1,1-4.8-1.5-5.7l-0.5,1.5c1.6,0.6,2.3,2.3,2,4c0-0.1,0-0.2,0.1-0.2
	c0,0.1,0,0.2-0.1,0.3c0.1-0.4,0.3-0.9,0.4-1.3c-1,2.5-4.6,2.5-5.8,0.2C0.7,17.1-0.2,18,0,18.4L0,18.4z"/>
<path class="st0" d="M239.1,90.1c1.9,1.5,2,3.6,0,5.1c-1.4,1.1-2.8,1.7-3,3.7c-0.3,3.1,4.2,3,4.2,5.7c0-0.4,0.1-0.8,0.1-1.1
	c-0.7,3.8-7.2,0.3-7.6,4.7c-0.3,2.8,3.5,2.5,3.8,4.8c0-0.4,0.1-0.8,0.1-1.1c-0.2,1.5-1.3,1.3-2.1,2.2c-0.4,0.4-0.5,0.8-0.5,1.4
	c-0.1,0.7-0.2,1.5,0.1,2.1c-0.1-0.3,0.3-0.8,0.1-1.1c-0.2-0.4-0.2-0.7-0.2-1.2c0,0.4-0.1,0.8-0.1,1.1c0.3-1.7,2.1-1.5,2.6-2.9
	c0.1-0.4,0.2-1.1,0.2-1.5c-0.2-2.2-3.6-2-3.9-4.2c0,0.4-0.1,0.8-0.1,1.1c0.4-2.8,4.2-1.7,6-2.4c1.2-0.5,1.6-1.4,1.6-2.6
	c0.1-2.8-4.2-2.7-4.3-5.4c0,0.4-0.1,0.8-0.1,1.1c0.4-1.8,2-2.3,3.3-3.3c0.8-0.7,1.2-1.5,1.3-2.6c0.2-1.8,0-3.4-1.5-4.5
	C239.4,89.1,239,89.9,239.1,90.1L239.1,90.1L239.1,90.1z"/>
<polygon class="st0" points="8,139.3 1,141.5 2.7,143.8 9.6,141.6 "/>
<polygon class="st0" points="51,104.3 49.9,102.3 49.3,103 50.4,105 "/>
<polygon class="st0" points="230.5,128.9 229.9,131.6 230.9,131.5 231.5,128.8 "/>
<polygon class="st0" points="210.7,102.2 207.7,102.5 208.2,103.5 211.1,103.2 "/>
<polygon class="st0" points="226.1,83.8 225,82.4 224.6,83 225.7,84.4 "/>
<polygon class="st0" points="245.3,73 241.6,67.3 239.9,69.3 243.6,75 "/>
<polygon class="st0" points="203.9,55.5 199.7,53.3 199.4,55.1 203.6,57.3 "/>
<path class="st0" d="M23.7,86.8c1.2,1.5,1.2,3.7,0.2,5.3c0,0-0.4,0.5-0.2,0.3c0.2-0.2-0.1,0.1-0.2,0.1c-0.2,0.1-0.3,0.3-0.5,0.4
	c-0.5,0.3-1,0.4-1.5,0.6c-1.2,0.2-2.4,0.2-3.5,0.1c-2,0-4,0.1-5.4,1.7c-1.2,1.4-1.6,2.9-1.2,4.7c0.6,2.5,2.8,4.1,4.6,5.7
	c1.8,1.5,4.2,3.4,4.4,6c0.1,1.1-0.3,1.9-1.5,2.2c-1,0.3-2.2,0.2-3.2-0.3c-2.1-0.9-4-3.1-6.4-2.9c-1.6,0.1-2.8,1.9-2.5,3.4
	c0.6,2.7,3.8,3.6,5.9,2c0.2-0.2,0.3-0.5,0.5-0.6c-1.8,1.4-4.4,1-5.5-1c-0.4-0.7-0.8-2.2,0-2.8c0.8-0.6,2.2-0.2,3,0.1
	c2.2,0.9,4,3,6.5,3c1.4,0,2.7-0.9,3.3-2.1c1.1-2.2-0.9-4.7-2.4-6.1c-1.9-1.8-4.3-3.2-5.6-5.6c-0.9-1.6-1.5-4.6,0.4-5.8
	c2-1.3,4.5-0.7,6.7-0.9c1.9-0.1,3.3-0.8,4.5-2.2c1.3-1.7,1.6-4.1,0.2-5.8C24.3,86.2,23.6,86.7,23.7,86.8L23.7,86.8L23.7,86.8z"/>
<path class="st0" d="M235.4,150.4c-0.3,2.2-0.6,5,1.4,6.6c0.9,0.8,2.3,1.1,3.4,1.3c5.8,1.5,8-5,9-9.4c0-0.1-2-0.6-2-0.6
	c-0.9,4.3-3,10.6-8.7,9.5c0.7,0.2,1.3,0.4,2,0.6c-3.4-1.1-3.3-4.4-3-7.4C237.4,150.9,235.3,150.5,235.4,150.4L235.4,150.4z"/>
<path class="st0" d="M220.7,65.3c0.3-0.4,0.6-0.8,1.1-1.1c0.5-0.3,1-0.4,1.3-0.9c0.1-0.1-0.5-0.7-0.6-0.8c-0.1-0.2-0.3-0.3-0.4-0.5
	l-0.2-0.2c-0.4,0.5-0.8,0.6-1.3,0.9c-0.5,0.3-0.9,0.6-1.1,1.1l0.2,0.2c0.1,0.2,0.3,0.4,0.4,0.5c0.1,0.2,0.3,0.3,0.4,0.5
	C220.5,65.1,220.7,65.3,220.7,65.3L220.7,65.3L220.7,65.3z"/>
<path class="st0" d="M47.9,74.9c1,0.3,2,0.8,2.8,1.6c0.8,0.8,1.3,1.7,2.5,2.1c0.3,0.1,1-1.5,1.1-1.7c0.3-0.4,0.5-0.8,0.8-1.2
	c0-0.1,0.3-0.5,0.3-0.5c-1.2-0.4-1.7-1.3-2.5-2.1c-0.8-0.8-1.8-1.3-2.8-1.6c-0.1,0-0.4,0.5-0.3,0.5c-0.3,0.4-0.5,0.8-0.8,1.2
	c-0.3,0.4-0.5,0.8-0.8,1.2C48.1,74.4,47.9,74.9,47.9,74.9L47.9,74.9L47.9,74.9z"/>
<g>
	<g class="st1">
		<path class="st0" d="M196,92.2c0.7-1.2,1.7-2.5,2.9-3.5s2.4-1.7,3.3-3.2c0.2-0.3-1.1-1-1.2-1.1c-0.3-0.3-0.6-0.5-0.9-0.8
			c0,0-0.4-0.2-0.4-0.3c-1,1.5-2.1,2.2-3.3,3.2s-2.2,2.3-2.9,3.5c0,0.1,0.4,0.4,0.3,0.3c0.3,0.3,0.6,0.5,0.8,0.8s0.6,0.5,0.9,0.8
			C195.7,91.9,196.1,92.1,196,92.2L196,92.2L196,92.2z"/>
	</g>
	<g class="st2">
		<path class="st0" d="M196,92.1c0.7-1.2,1.7-2.4,2.9-3.5c1.2-1,2.3-1.7,3.3-3.2c0.2-0.3-1-1-1.2-1.1c-0.3-0.3-0.6-0.5-0.9-0.8
			c0,0-0.4-0.2-0.4-0.3c-1,1.5-2.1,2.1-3.3,3.2c-1.2,1-2.2,2.3-2.9,3.5c0,0.1,0.4,0.4,0.3,0.3c0.3,0.3,0.6,0.5,0.8,0.8
			c0.3,0.3,0.6,0.5,0.9,0.8C195.7,91.9,196.1,92,196,92.1L196,92.1L196,92.1z"/>
	</g>
	<g class="st3">
		<path class="st0" d="M196.1,92.1c0.7-1.2,1.7-2.4,2.9-3.4s2.3-1.7,3.3-3.1c0.2-0.3-1-1-1.2-1.1c-0.3-0.3-0.6-0.5-0.9-0.7
			c0,0-0.4-0.2-0.4-0.3c-1,1.4-2.1,2.1-3.3,3.1s-2.1,2.2-2.9,3.4c0,0.1,0.4,0.4,0.3,0.3c0.3,0.3,0.5,0.5,0.8,0.8s0.6,0.5,0.9,0.7
			C195.7,91.8,196.1,92,196.1,92.1L196.1,92.1L196.1,92.1z"/>
	</g>
	<g class="st4">
		<path class="st0" d="M196.1,92c0.7-1.2,1.7-2.4,2.8-3.4s2.3-1.7,3.2-3.1c0.2-0.3-1-1-1.1-1.1c-0.3-0.3-0.6-0.5-0.8-0.7
			c0,0-0.4-0.2-0.4-0.3c-1,1.4-2.1,2.1-3.2,3.1c-1.1,1-2.1,2.2-2.8,3.4c0,0.1,0.4,0.4,0.3,0.3c0.3,0.3,0.5,0.5,0.8,0.8
			s0.6,0.5,0.8,0.7C195.7,91.8,196.1,92,196.1,92L196.1,92L196.1,92z"/>
	</g>
	<g class="st5">
		<path class="st0" d="M196.1,92c0.7-1.2,1.7-2.4,2.8-3.3c1.1-1,2.3-1.7,3.2-3.1c0.2-0.3-1-1-1.1-1.1c-0.3-0.2-0.5-0.5-0.8-0.7
			c0,0-0.4-0.2-0.4-0.3c-0.9,1.4-2.1,2.1-3.2,3.1c-1.1,1-2.1,2.2-2.8,3.3c0,0.1,0.3,0.4,0.3,0.3c0.3,0.3,0.5,0.5,0.8,0.8
			c0.3,0.2,0.5,0.5,0.8,0.7C195.8,91.7,196.1,91.9,196.1,92L196.1,92L196.1,92z"/>
	</g>
	<g class="st6">
		<path class="st0" d="M196.1,91.9c0.7-1.1,1.7-2.3,2.8-3.3s2.2-1.6,3.2-3c0.2-0.3-1-1-1.1-1.1c-0.3-0.2-0.5-0.5-0.8-0.7
			c0,0-0.4-0.2-0.4-0.3c-0.9,1.4-2,2-3.2,3c-1.1,1-2.1,2.2-2.8,3.3c0,0.1,0.3,0.4,0.3,0.3c0.3,0.3,0.5,0.5,0.8,0.7s0.5,0.5,0.8,0.7
			C195.8,91.7,196.1,91.9,196.1,91.9L196.1,91.9L196.1,91.9z"/>
	</g>
	<g class="st7">
		<path class="st0" d="M196.1,91.9c0.7-1.1,1.6-2.3,2.8-3.3c1.1-1,2.2-1.6,3.2-3c0.2-0.3-1-1-1.1-1.1c-0.3-0.2-0.5-0.5-0.8-0.7
			c0,0-0.4-0.2-0.4-0.3c-0.9,1.4-2,2-3.2,3c-1.1,1-2.1,2.1-2.8,3.3c0,0.1,0.3,0.4,0.3,0.3c0.3,0.3,0.5,0.5,0.8,0.7s0.5,0.5,0.8,0.7
			C195.8,91.7,196.2,91.8,196.1,91.9L196.1,91.9L196.1,91.9z"/>
	</g>
	<g class="st8">
		<path class="st0" d="M196.1,91.8c0.7-1.1,1.6-2.3,2.7-3.2c1.1-1,2.2-1.6,3.1-3c0.2-0.3-1-1-1.1-1.1c-0.3-0.2-0.5-0.5-0.8-0.7
			c0,0-0.4-0.2-0.4-0.3c-0.9,1.4-2,2-3.1,3s-2.1,2.1-2.7,3.2c0,0.1,0.3,0.4,0.3,0.3c0.3,0.3,0.5,0.5,0.8,0.7s0.5,0.5,0.8,0.7
			C195.8,91.6,196.2,91.8,196.1,91.8L196.1,91.8z"/>
	</g>
	<g class="st9">
		<path class="st0" d="M196.1,91.8c0.7-1.1,1.6-2.3,2.7-3.2c1.1-1,2.2-1.6,3.1-2.9c0.2-0.3-1-0.9-1.1-1.1c-0.3-0.2-0.5-0.5-0.8-0.7
			c0,0-0.4-0.2-0.3-0.3c-0.9,1.4-2,2-3.1,2.9s-2,2.1-2.7,3.2c0,0.1,0.3,0.4,0.3,0.3c0.3,0.2,0.5,0.5,0.8,0.7s0.5,0.5,0.8,0.7
			C195.8,91.6,196.2,91.7,196.1,91.8L196.1,91.8L196.1,91.8z"/>
	</g>
	<g class="st10">
		<path class="st0" d="M196.2,91.8c0.7-1.1,1.6-2.2,2.7-3.2c1.1-0.9,2.2-1.6,3.1-2.9c0.2-0.3-1-0.9-1.1-1c-0.3-0.2-0.5-0.5-0.8-0.7
			c0,0-0.4-0.2-0.3-0.3c-0.9,1.3-2,2-3.1,2.9s-2,2.1-2.7,3.2c0,0.1,0.3,0.3,0.3,0.3c0.3,0.2,0.5,0.5,0.8,0.7s0.5,0.5,0.8,0.7
			C195.9,91.5,196.2,91.7,196.2,91.8L196.2,91.8z"/>
	</g>
	<g class="st11">
		<path class="st0" d="M196.2,91.7c0.7-1.1,1.6-2.2,2.6-3.1c1.1-0.9,2.1-1.5,3-2.9c0.2-0.3-0.9-0.9-1.1-1c-0.3-0.2-0.5-0.5-0.8-0.7
			c0,0-0.4-0.2-0.3-0.3c-0.9,1.3-2,1.9-3,2.9c-1.1,0.9-2,2.1-2.6,3.1c0,0.1,0.3,0.3,0.3,0.3c0.2,0.2,0.5,0.5,0.8,0.7
			s0.5,0.5,0.8,0.7C195.9,91.5,196.2,91.6,196.2,91.7L196.2,91.7L196.2,91.7z"/>
	</g>
	<g class="st12">
		<path class="st0" d="M196.2,91.7c0.7-1.1,1.6-2.2,2.6-3.1c1.1-0.9,2.1-1.5,3-2.8c0.2-0.3-0.9-0.9-1-1c-0.3-0.2-0.5-0.5-0.8-0.7
			c0,0-0.4-0.2-0.3-0.3c-0.9,1.3-1.9,1.9-3,2.8s-2,2-2.6,3.1c0,0.1,0.3,0.3,0.3,0.3c0.2,0.2,0.5,0.5,0.7,0.7
			c0.3,0.2,0.5,0.5,0.8,0.7C195.9,91.4,196.2,91.6,196.2,91.7L196.2,91.7L196.2,91.7z"/>
	</g>
	<g class="st13">
		<path class="st0" d="M196.2,91.6c0.6-1.1,1.6-2.2,2.6-3.1c1.1-0.9,2.1-1.5,3-2.8c0.2-0.3-0.9-0.9-1-1c-0.2-0.2-0.5-0.5-0.8-0.7
			c0,0-0.4-0.2-0.3-0.3c-0.9,1.3-1.9,1.9-3,2.8c-1,0.9-2,2-2.6,3.1c0,0.1,0.3,0.3,0.3,0.3c0.2,0.2,0.5,0.5,0.7,0.7s0.5,0.5,0.8,0.7
			C195.9,91.4,196.2,91.5,196.2,91.6L196.2,91.6L196.2,91.6z"/>
	</g>
	<g class="st14">
		<path class="st0" d="M196.2,91.6c0.6-1,1.5-2.1,2.6-3c1-0.9,2.1-1.5,2.9-2.8c0.2-0.3-0.9-0.9-1-1c-0.2-0.2-0.5-0.5-0.7-0.7
			c0,0-0.4-0.2-0.3-0.3c-0.9,1.3-1.9,1.9-2.9,2.8s-1.9,2-2.6,3c0,0.1,0.3,0.3,0.3,0.3c0.2,0.2,0.5,0.5,0.7,0.7s0.5,0.5,0.7,0.7
			C195.9,91.3,196.3,91.5,196.2,91.6L196.2,91.6L196.2,91.6z"/>
	</g>
	<g class="st15">
		<path class="st0" d="M196.2,91.5c0.6-1,1.5-2.1,2.5-3s2.1-1.5,2.9-2.7c0.2-0.3-0.9-0.9-1-1c-0.2-0.2-0.5-0.4-0.7-0.7
			c0,0-0.4-0.2-0.3-0.3c-0.9,1.3-1.9,1.8-2.9,2.7c-1,0.9-1.9,2-2.5,3c0,0.1,0.3,0.3,0.3,0.3c0.2,0.2,0.5,0.5,0.7,0.7
			s0.5,0.4,0.7,0.7C195.9,91.3,196.3,91.5,196.2,91.5L196.2,91.5L196.2,91.5z"/>
	</g>
	<g class="st16">
		<path class="st0" d="M196.2,91.5c0.6-1,1.5-2.1,2.5-3s2-1.5,2.9-2.7c0.2-0.3-0.9-0.9-1-1c-0.2-0.2-0.5-0.4-0.7-0.7
			c0,0-0.4-0.2-0.3-0.3c-0.9,1.3-1.9,1.8-2.9,2.7c-1,0.9-1.9,1.9-2.5,3c0,0.1,0.3,0.3,0.3,0.3c0.2,0.2,0.5,0.5,0.7,0.7
			s0.5,0.4,0.7,0.7C196,91.3,196.3,91.4,196.2,91.5L196.2,91.5L196.2,91.5z"/>
	</g>
	<g class="st17">
		<path class="st0" d="M196.3,91.4c0.6-1,1.5-2.1,2.5-2.9c1-0.9,2-1.4,2.9-2.7c0.2-0.3-0.9-0.9-1-1c-0.2-0.2-0.5-0.4-0.7-0.6
			l-0.3-0.2c-0.8,1.2-1.8,1.8-2.9,2.7c-1,0.9-1.9,1.9-2.5,2.9c0,0.1,0.3,0.3,0.3,0.3c0.2,0.2,0.5,0.4,0.7,0.7
			c0.2,0.2,0.5,0.4,0.7,0.6C196,91.2,196.3,91.4,196.3,91.4L196.3,91.4z"/>
	</g>
	<g class="st18">
		<path class="st0" d="M196.3,91.4c0.6-1,1.5-2,2.5-2.9s2-1.4,2.8-2.6c0.2-0.3-0.9-0.9-1-1c-0.2-0.2-0.5-0.4-0.7-0.6l-0.3-0.2
			c-0.8,1.2-1.8,1.8-2.8,2.6c-1,0.9-1.9,1.9-2.5,2.9c0,0.1,0.3,0.3,0.3,0.3c0.2,0.2,0.5,0.4,0.7,0.7c0.2,0.2,0.5,0.4,0.7,0.6
			C196,91.2,196.3,91.3,196.3,91.4L196.3,91.4L196.3,91.4z"/>
	</g>
	<g class="st19">
		<path class="st0" d="M196.3,91.3c0.6-1,1.5-2,2.4-2.8c1-0.8,2-1.4,2.8-2.6c0.2-0.3-0.8-0.8-0.9-0.9c-0.2-0.2-0.5-0.4-0.7-0.6
			l-0.3-0.2c-0.8,1.2-1.8,1.8-2.8,2.6c-1,0.8-1.8,1.9-2.4,2.8c0,0.1,0.3,0.3,0.3,0.3c0.2,0.2,0.5,0.4,0.7,0.7
			c0.2,0.2,0.5,0.4,0.7,0.6C196,91.1,196.3,91.3,196.3,91.3L196.3,91.3z"/>
	</g>
	<g class="st20">
		<path class="st0" d="M196.3,91.3c0.6-1,1.4-2,2.4-2.8s1.9-1.4,2.8-2.6c0.2-0.3-0.8-0.8-0.9-0.9c-0.2-0.2-0.5-0.4-0.7-0.6l-0.3-0.2
			c-0.8,1.2-1.8,1.7-2.8,2.6c-1,0.8-1.8,1.8-2.4,2.8c0,0.1,0.3,0.3,0.3,0.3c0.2,0.2,0.4,0.4,0.7,0.6c0.2,0.2,0.5,0.4,0.7,0.6
			C196,91.1,196.3,91.2,196.3,91.3L196.3,91.3L196.3,91.3z"/>
	</g>
	<g class="st21">
		<path class="st0" d="M196.3,91.2c0.6-1,1.4-2,2.4-2.8s1.9-1.4,2.7-2.5c0.2-0.3-0.8-0.8-0.9-0.9c-0.2-0.2-0.5-0.4-0.7-0.6l-0.3-0.2
			c-0.8,1.2-1.8,1.7-2.7,2.5c-1,0.8-1.8,1.8-2.4,2.8c0,0.1,0.3,0.3,0.3,0.3c0.2,0.2,0.4,0.4,0.7,0.6c0.2,0.2,0.5,0.4,0.7,0.6
			C196.1,91,196.4,91.2,196.3,91.2L196.3,91.2z"/>
	</g>
	<g class="st22">
		<path class="st0" d="M196.3,91.2c0.6-0.9,1.4-1.9,2.4-2.7c1-0.8,1.9-1.3,2.7-2.5c0.2-0.3-0.8-0.8-0.9-0.9
			c-0.2-0.2-0.4-0.4-0.7-0.6l-0.3-0.2c-0.8,1.2-1.7,1.7-2.7,2.5s-1.8,1.8-2.4,2.7c0,0.1,0.3,0.3,0.3,0.3c0.2,0.2,0.4,0.4,0.7,0.6
			c0.2,0.2,0.4,0.4,0.7,0.6C196.1,91,196.4,91.1,196.3,91.2L196.3,91.2L196.3,91.2z"/>
	</g>
	<g class="st23">
		<path class="st0" d="M196.3,91.2c0.6-0.9,1.4-1.9,2.3-2.7c0.9-0.8,1.9-1.3,2.7-2.5c0.2-0.3-0.8-0.8-0.9-0.9
			c-0.2-0.2-0.4-0.4-0.7-0.6l-0.3-0.2c-0.8,1.1-1.7,1.7-2.7,2.5c-0.9,0.8-1.8,1.8-2.3,2.7c0,0.1,0.3,0.3,0.3,0.3
			c0.2,0.2,0.4,0.4,0.6,0.6c0.2,0.2,0.4,0.4,0.7,0.6C196.1,91,196.4,91.1,196.3,91.2L196.3,91.2L196.3,91.2z"/>
	</g>
	<g class="st24">
		<path class="st0" d="M196.4,91.1c0.6-0.9,1.4-1.9,2.3-2.7c0.9-0.8,1.9-1.3,2.6-2.4c0.2-0.3-0.8-0.8-0.9-0.9
			c-0.2-0.2-0.4-0.4-0.7-0.6l-0.3-0.2c-0.8,1.1-1.7,1.6-2.6,2.4c-0.9,0.8-1.7,1.7-2.3,2.7c0,0.1,0.3,0.3,0.2,0.3
			c0.2,0.2,0.4,0.4,0.6,0.6c0.2,0.2,0.4,0.4,0.7,0.6C196.1,90.9,196.4,91,196.4,91.1L196.4,91.1z"/>
	</g>
	<g class="st25">
		<path class="st0" d="M196.4,91.1c0.6-0.9,1.4-1.9,2.3-2.6c0.9-0.8,1.8-1.3,2.6-2.4c0.2-0.3-0.8-0.8-0.9-0.9
			c-0.2-0.2-0.4-0.4-0.6-0.6l-0.3-0.2c-0.8,1.1-1.7,1.6-2.6,2.4c-0.9,0.8-1.7,1.7-2.3,2.6c0,0.1,0.3,0.3,0.2,0.3
			c0.2,0.2,0.4,0.4,0.6,0.6c0.2,0.2,0.4,0.4,0.6,0.6C196.1,90.9,196.4,91,196.4,91.1L196.4,91.1L196.4,91.1z"/>
	</g>
	<g class="st26">
		<path class="st0" d="M196.4,91c0.6-0.9,1.4-1.8,2.3-2.6c0.9-0.8,1.8-1.3,2.6-2.4c0.2-0.3-0.8-0.8-0.9-0.9
			c-0.2-0.2-0.4-0.4-0.6-0.6l-0.3-0.2c-0.8,1.1-1.7,1.6-2.6,2.4c-0.9,0.8-1.7,1.7-2.3,2.6c0,0.1,0.3,0.3,0.2,0.3
			c0.2,0.2,0.4,0.4,0.6,0.6s0.4,0.4,0.6,0.6C196.1,90.8,196.4,91,196.4,91L196.4,91L196.4,91z"/>
	</g>
	<g class="st27">
		<path class="st0" d="M196.4,91c0.6-0.9,1.3-1.8,2.2-2.6c0.9-0.8,1.8-1.3,2.6-2.3c0.2-0.2-0.8-0.8-0.8-0.9
			c-0.2-0.2-0.4-0.4-0.6-0.6l-0.3-0.2c-0.8,1.1-1.6,1.6-2.6,2.3c-0.9,0.8-1.7,1.7-2.2,2.6c0,0.1,0.3,0.3,0.2,0.3
			c0.2,0.2,0.4,0.4,0.6,0.6c0.2,0.2,0.4,0.4,0.6,0.6C196.2,90.8,196.4,90.9,196.4,91L196.4,91L196.4,91z"/>
	</g>
	<g class="st28">
		<path class="st0" d="M196.4,90.9c0.6-0.9,1.3-1.8,2.2-2.5s1.8-1.2,2.5-2.3c0.2-0.2-0.7-0.8-0.8-0.8c-0.2-0.2-0.4-0.4-0.6-0.6
			l-0.3-0.2c-0.8,1.1-1.6,1.5-2.5,2.3c-0.9,0.7-1.7,1.6-2.2,2.5c0,0.1,0.3,0.3,0.2,0.3c0.2,0.2,0.4,0.4,0.6,0.6
			c0.2,0.2,0.4,0.4,0.6,0.6C196.2,90.7,196.5,90.9,196.4,90.9L196.4,90.9z"/>
	</g>
	<g class="st29">
		<path class="st0" d="M196.4,90.9c0.6-0.9,1.3-1.7,2.2-2.5c0.9-0.7,1.8-1.2,2.5-2.3c0.2-0.2-0.7-0.8-0.8-0.8
			c-0.2-0.2-0.4-0.4-0.6-0.6l-0.3-0.2c-0.7,1.1-1.6,1.5-2.5,2.3c-0.9,0.7-1.6,1.6-2.2,2.5c0,0.1,0.3,0.3,0.2,0.3
			c0.2,0.2,0.4,0.4,0.6,0.6c0.2,0.2,0.4,0.4,0.6,0.6C196.2,90.7,196.5,90.8,196.4,90.9L196.4,90.9z"/>
	</g>
	<g class="st30">
		<path class="st0" d="M196.4,90.8c0.5-0.8,1.3-1.7,2.2-2.4c0.9-0.7,1.7-1.2,2.5-2.2c0.2-0.2-0.7-0.7-0.8-0.8
			c-0.2-0.2-0.4-0.4-0.6-0.6l-0.3-0.2c-0.7,1-1.6,1.5-2.5,2.2s-1.6,1.6-2.2,2.4c0,0.1,0.2,0.3,0.2,0.3c0.2,0.2,0.4,0.4,0.6,0.6
			c0.2,0.2,0.4,0.4,0.6,0.6C196.2,90.7,196.5,90.8,196.4,90.8L196.4,90.8L196.4,90.8z"/>
	</g>
	<g class="st31">
		<path class="st0" d="M196.5,90.8c0.5-0.8,1.3-1.7,2.1-2.4c0.9-0.7,1.7-1.2,2.4-2.2c0.2-0.2-0.7-0.7-0.8-0.8
			c-0.2-0.2-0.4-0.4-0.6-0.6l-0.3-0.2c-0.7,1-1.6,1.5-2.4,2.2c-0.9,0.7-1.6,1.6-2.1,2.4c0,0.1,0.2,0.3,0.2,0.3
			c0.2,0.2,0.4,0.4,0.6,0.6c0.2,0.2,0.4,0.4,0.6,0.6C196.2,90.6,196.5,90.7,196.5,90.8L196.5,90.8L196.5,90.8z"/>
	</g>
	<g class="st32">
		<path class="st0" d="M196.5,90.7c0.5-0.8,1.3-1.7,2.1-2.4c0.8-0.7,1.7-1.2,2.4-2.2c0.2-0.2-0.7-0.7-0.8-0.8
			c-0.2-0.2-0.4-0.4-0.6-0.5l-0.3-0.2c-0.7,1-1.6,1.5-2.4,2.2c-0.8,0.7-1.6,1.6-2.1,2.4c0,0.1,0.2,0.3,0.2,0.2
			c0.2,0.2,0.4,0.4,0.6,0.6c0.2,0.2,0.4,0.4,0.6,0.5C196.3,90.6,196.5,90.7,196.5,90.7L196.5,90.7z"/>
	</g>
	<g class="st33">
		<path class="st0" d="M196.5,90.7c0.5-0.8,1.3-1.6,2.1-2.3c0.8-0.7,1.7-1.1,2.4-2.1c0.2-0.2-0.7-0.7-0.8-0.8
			c-0.2-0.2-0.4-0.4-0.6-0.5l-0.3-0.2c-0.7,1-1.5,1.4-2.4,2.1c-0.8,0.7-1.6,1.5-2.1,2.3c0,0.1,0.2,0.3,0.2,0.2
			c0.2,0.2,0.4,0.4,0.6,0.6c0.2,0.2,0.4,0.4,0.6,0.5C196.3,90.5,196.5,90.6,196.5,90.7L196.5,90.7z"/>
	</g>
	<g class="st34">
		<path class="st0" d="M196.5,90.7c0.5-0.8,1.2-1.6,2.1-2.3c0.8-0.7,1.6-1.1,2.3-2.1c0.2-0.2-0.7-0.7-0.8-0.8
			c-0.2-0.2-0.4-0.4-0.6-0.5c0,0-0.3-0.2-0.2-0.2c-0.7,1-1.5,1.4-2.3,2.1s-1.5,1.5-2.1,2.3c0,0.1,0.2,0.3,0.2,0.2
			c0.2,0.2,0.4,0.4,0.5,0.5s0.4,0.4,0.6,0.5C196.3,90.5,196.5,90.6,196.5,90.7L196.5,90.7L196.5,90.7z"/>
	</g>
	<g class="st35">
		<path class="st0" d="M196.5,90.6c0.5-0.8,1.2-1.6,2-2.3c0.8-0.7,1.6-1.1,2.3-2.1c0.2-0.2-0.7-0.7-0.7-0.8
			c-0.2-0.2-0.4-0.4-0.6-0.5c0,0-0.3-0.2-0.2-0.2c-0.7,1-1.5,1.4-2.3,2.1s-1.5,1.5-2,2.3c0,0.1,0.2,0.3,0.2,0.2
			c0.2,0.2,0.4,0.4,0.5,0.5c0.2,0.2,0.4,0.4,0.6,0.5C196.3,90.4,196.6,90.6,196.5,90.6L196.5,90.6L196.5,90.6z"/>
	</g>
	<g class="st36">
		<path class="st0" d="M196.5,90.6c0.5-0.8,1.2-1.6,2-2.2c0.8-0.7,1.6-1.1,2.3-2c0.2-0.2-0.7-0.7-0.7-0.8c-0.2-0.2-0.4-0.3-0.5-0.5
			c0,0-0.3-0.2-0.2-0.2c-0.7,0.9-1.5,1.4-2.3,2c-0.8,0.7-1.5,1.5-2,2.2c0,0.1,0.2,0.3,0.2,0.2c0.2,0.2,0.4,0.4,0.5,0.5
			c0.2,0.2,0.4,0.3,0.5,0.5C196.3,90.4,196.6,90.5,196.5,90.6L196.5,90.6L196.5,90.6z"/>
	</g>
	<g class="st37">
		<path class="st0" d="M196.5,90.5c0.5-0.8,1.2-1.5,2-2.2s1.6-1.1,2.3-2c0.2-0.2-0.6-0.7-0.7-0.8c-0.2-0.2-0.4-0.3-0.5-0.5
			c0,0-0.3-0.2-0.2-0.2c-0.7,0.9-1.5,1.3-2.3,2c-0.8,0.6-1.5,1.4-2,2.2c0,0.1,0.2,0.3,0.2,0.2c0.2,0.2,0.3,0.4,0.5,0.5
			c0.2,0.2,0.4,0.3,0.5,0.5C196.3,90.3,196.6,90.5,196.5,90.5L196.5,90.5L196.5,90.5z"/>
	</g>
	<g class="st38">
		<path class="st0" d="M196.6,90.5c0.5-0.7,1.2-1.5,2-2.2c0.8-0.6,1.6-1.1,2.2-2c0.2-0.2-0.6-0.7-0.7-0.7c-0.2-0.2-0.3-0.3-0.5-0.5
			c0,0-0.3-0.2-0.2-0.2c-0.7,0.9-1.4,1.3-2.2,2c-0.8,0.6-1.5,1.4-2,2.2c0,0.1,0.2,0.2,0.2,0.2c0.2,0.2,0.3,0.3,0.5,0.5
			s0.3,0.3,0.5,0.5C196.4,90.3,196.6,90.4,196.6,90.5L196.6,90.5L196.6,90.5z"/>
	</g>
	<g class="st39">
		<path class="st0" d="M196.6,90.4c0.5-0.7,1.2-1.5,1.9-2.1c0.8-0.6,1.5-1,2.2-1.9c0.2-0.2-0.6-0.7-0.7-0.7
			c-0.2-0.2-0.3-0.3-0.5-0.5c0,0-0.3-0.2-0.2-0.2c-0.7,0.9-1.4,1.3-2.2,1.9s-1.4,1.4-1.9,2.1c0,0.1,0.2,0.2,0.2,0.2
			c0.2,0.2,0.3,0.3,0.5,0.5s0.3,0.3,0.5,0.5C196.4,90.3,196.6,90.4,196.6,90.4L196.6,90.4L196.6,90.4z"/>
	</g>
	<g class="st40">
		<path class="st0" d="M196.6,90.4c0.5-0.7,1.2-1.5,1.9-2.1c0.8-0.6,1.5-1,2.2-1.9c0.2-0.2-0.6-0.6-0.7-0.7
			c-0.2-0.2-0.3-0.3-0.5-0.5l-0.2-0.2c-0.7,0.9-1.4,1.3-2.2,1.9s-1.4,1.4-1.9,2.1l0.2,0.2c0.2,0.2,0.3,0.3,0.5,0.5s0.3,0.3,0.5,0.5
			C196.4,90.2,196.6,90.3,196.6,90.4L196.6,90.4L196.6,90.4z"/>
	</g>
	<g class="st41">
		<path class="st0" d="M196.6,90.3c0.5-0.7,1.1-1.4,1.9-2.1c0.8-0.6,1.5-1,2.1-1.9c0.1-0.2-0.6-0.6-0.7-0.7
			c-0.2-0.2-0.3-0.3-0.5-0.5l-0.2-0.2c-0.6,0.9-1.4,1.3-2.1,1.9c-0.7,0.6-1.4,1.3-1.9,2.1l0.2,0.2c0.2,0.2,0.3,0.3,0.5,0.5
			s0.3,0.3,0.5,0.5C196.4,90.2,196.6,90.3,196.6,90.3L196.6,90.3L196.6,90.3z"/>
	</g>
	<g class="st42">
		<path class="st0" d="M196.6,90.3c0.5-0.7,1.1-1.4,1.9-2c0.7-0.6,1.5-1,2.1-1.8c0.1-0.2-0.6-0.6-0.7-0.7c-0.2-0.2-0.3-0.3-0.5-0.5
			c0,0-0.2-0.1-0.2-0.2c-0.6,0.9-1.4,1.2-2.1,1.8c-0.7,0.6-1.4,1.3-1.9,2l0.2,0.2c0.2,0.2,0.3,0.3,0.5,0.5s0.3,0.3,0.5,0.5
			C196.4,90.1,196.7,90.2,196.6,90.3L196.6,90.3L196.6,90.3z"/>
	</g>
	<g class="st43">
		<path class="st0" d="M196.6,90.2c0.5-0.7,1.1-1.4,1.8-2s1.4-1,2.1-1.8c0.1-0.2-0.6-0.6-0.6-0.7c-0.2-0.2-0.3-0.3-0.5-0.5
			c0,0-0.2-0.1-0.2-0.2c-0.6,0.8-1.3,1.2-2.1,1.8c-0.7,0.6-1.4,1.3-1.8,2l0.2,0.2c0.2,0.2,0.3,0.3,0.5,0.5s0.3,0.3,0.5,0.5
			C196.4,90.1,196.7,90.2,196.6,90.2L196.6,90.2L196.6,90.2z"/>
	</g>
	<g class="st44">
		<path class="st0" d="M196.6,90.2c0.5-0.7,1.1-1.4,1.8-1.9c0.7-0.6,1.4-0.9,2-1.8c0.1-0.2-0.6-0.6-0.6-0.7
			c-0.2-0.2-0.3-0.3-0.5-0.5c0,0-0.2-0.1-0.2-0.2c-0.6,0.8-1.3,1.2-2,1.8c-0.7,0.6-1.3,1.3-1.8,1.9l0.2,0.2c0.1,0.2,0.3,0.3,0.5,0.5
			s0.3,0.3,0.5,0.5C196.5,90,196.7,90.1,196.6,90.2L196.6,90.2z"/>
	</g>
	<g class="st45">
		<path class="st0" d="M196.7,90.1c0.5-0.7,1.1-1.3,1.8-1.9s1.4-0.9,2-1.7c0.1-0.2-0.6-0.6-0.6-0.7c-0.2-0.2-0.3-0.3-0.5-0.5
			c0,0-0.2-0.1-0.2-0.2c-0.6,0.8-1.3,1.2-2,1.7c-0.7,0.6-1.3,1.2-1.8,1.9l0.2,0.2c0.1,0.2,0.3,0.3,0.4,0.5c0.2,0.2,0.3,0.3,0.5,0.5
			C196.5,90,196.7,90.1,196.7,90.1L196.7,90.1z"/>
	</g>
	<g class="st46">
		<path class="st0" d="M196.7,90.1c0.4-0.7,1.1-1.3,1.8-1.9s1.4-0.9,2-1.7c0.1-0.2-0.5-0.6-0.6-0.7c-0.1-0.2-0.3-0.3-0.5-0.4
			c0,0-0.2-0.1-0.2-0.2c-0.6,0.8-1.3,1.1-2,1.7c-0.7,0.5-1.3,1.2-1.8,1.9l0.2,0.2c0.1,0.2,0.3,0.3,0.4,0.5c0.1,0.2,0.3,0.3,0.5,0.4
			C196.5,90,196.7,90.1,196.7,90.1L196.7,90.1L196.7,90.1z"/>
	</g>
	<g class="st47">
		<path class="st0" d="M196.7,90.1c0.4-0.6,1-1.3,1.7-1.8s1.4-0.9,2-1.7c0.1-0.2-0.5-0.6-0.6-0.6c-0.1-0.1-0.3-0.3-0.4-0.4
			c0,0-0.2-0.1-0.2-0.2c-0.6,0.8-1.3,1.1-2,1.7c-0.7,0.5-1.3,1.2-1.7,1.8l0.2,0.2c0.1,0.2,0.3,0.3,0.4,0.4c0.1,0.1,0.3,0.3,0.4,0.4
			C196.5,89.9,196.7,90,196.7,90.1L196.7,90.1L196.7,90.1z"/>
	</g>
	<g class="st48">
		<path class="st0" d="M196.7,90c0.4-0.6,1-1.3,1.7-1.8s1.3-0.9,1.9-1.6c0.1-0.2-0.5-0.6-0.6-0.6c-0.1-0.1-0.3-0.3-0.4-0.4
			c0,0-0.2-0.1-0.2-0.2c-0.6,0.8-1.2,1.1-1.9,1.6s-1.3,1.2-1.7,1.8l0.2,0.2c0.1,0.2,0.3,0.3,0.4,0.4c0.1,0.1,0.3,0.3,0.4,0.4
			C196.5,89.9,196.7,90,196.7,90L196.7,90L196.7,90z"/>
	</g>
	<g class="st49">
		<path class="st0" d="M196.7,90c0.4-0.6,1-1.2,1.7-1.8c0.7-0.5,1.3-0.9,1.9-1.6c0.1-0.2-0.5-0.6-0.6-0.6c-0.1-0.1-0.3-0.3-0.4-0.4
			c0,0-0.2-0.1-0.2-0.2c-0.6,0.8-1.2,1.1-1.9,1.6s-1.3,1.2-1.7,1.8l0.2,0.2c0.1,0.1,0.3,0.3,0.4,0.4c0.1,0.1,0.3,0.3,0.4,0.4
			C196.6,89.8,196.8,89.9,196.7,90L196.7,90L196.7,90z"/>
	</g>
	<g class="st50">
		<path class="st0" d="M196.7,89.9c0.4-0.6,1-1.2,1.7-1.7s1.3-0.8,1.9-1.6c0.1-0.2-0.5-0.6-0.6-0.6c-0.1-0.1-0.3-0.3-0.4-0.4
			c0,0-0.2-0.1-0.2-0.2c-0.6,0.7-1.2,1.1-1.9,1.6s-1.2,1.1-1.7,1.7l0.2,0.2c0.1,0.1,0.3,0.3,0.4,0.4c0.1,0.1,0.3,0.3,0.4,0.4
			C196.6,89.8,196.8,89.9,196.7,89.9L196.7,89.9L196.7,89.9z"/>
	</g>
	<g class="st51">
		<path class="st0" d="M196.7,89.9c0.4-0.6,1-1.2,1.6-1.7s1.3-0.8,1.8-1.5c0.1-0.2-0.5-0.5-0.5-0.6c-0.1-0.1-0.3-0.3-0.4-0.4
			c0,0-0.2-0.1-0.2-0.2c-0.6,0.7-1.2,1-1.8,1.5s-1.2,1.1-1.6,1.7l0.2,0.2c0.1,0.1,0.3,0.3,0.4,0.4c0.1,0.1,0.3,0.3,0.4,0.4
			C196.6,89.7,196.8,89.8,196.7,89.9L196.7,89.9L196.7,89.9z"/>
	</g>
	<path class="st0" d="M196.8,89.8c0.4-0.6,1-1.2,1.6-1.7s1.3-0.8,1.8-1.5c0.1-0.2-0.5-0.5-0.5-0.6c-0.1-0.1-0.3-0.3-0.4-0.4
		c0,0-0.2-0.1-0.2-0.2c-0.6,0.7-1.2,1-1.8,1.5s-1.2,1.1-1.6,1.7c0,0,0.2,0.2,0.1,0.2c0.1,0.1,0.3,0.3,0.4,0.4
		c0.1,0.1,0.3,0.3,0.4,0.4C196.6,89.7,196.8,89.8,196.8,89.8L196.8,89.8z"/>
</g>
<polygon class="st0" points="241.5,273.3 245.1,269.6 243.3,268.7 239.7,272.4 "/>
<polygon class="st0" points="226.8,251.1 225.7,251.9 226.2,252.2 227.2,251.4 "/>
<polygon class="st0" points="208.4,242.7 204.4,244.8 205.6,246.1 209.6,244 "/>
<path class="st0" d="M239.1,191.8c1.9,1.5,2,3.6,0,5.1c-1.4,1.1-2.8,1.7-3,3.7c-0.3,3.1,4.2,3,4.2,5.7c0-0.4,0.1-0.8,0.1-1.1
	c-0.7,3.8-7.2,0.3-7.6,4.7c-0.3,2.8,3.5,2.5,3.8,4.8c0-0.4,0.1-0.8,0.1-1.1c-0.2,1.5-1.3,1.3-2.1,2.2c-0.4,0.4-0.5,0.8-0.5,1.4
	c-0.1,0.7-0.2,1.5,0.1,2.1c-0.1-0.3,0.3-0.8,0.1-1.1c-0.2-0.4-0.2-0.7-0.2-1.2c0,0.4-0.1,0.8-0.1,1.1c0.3-1.7,2.1-1.5,2.6-2.9
	c0.1-0.4,0.2-1.1,0.2-1.5c-0.2-2.2-3.6-2-3.9-4.2c0,0.4-0.1,0.8-0.1,1.1c0.4-2.8,4.2-1.7,6-2.4c1.2-0.5,1.6-1.4,1.6-2.6
	c0.1-2.8-4.2-2.7-4.3-5.4c0,0.4-0.1,0.8-0.1,1.1c0.4-1.8,2-2.3,3.3-3.3c0.8-0.7,1.2-1.5,1.3-2.6c0.2-1.8,0-3.4-1.5-4.5
	C239.4,190.8,239,191.7,239.1,191.8L239.1,191.8L239.1,191.8z"/>
<polygon class="st0" points="230.5,230.6 229.9,233.3 230.9,233.2 231.5,230.5 "/>
<polygon class="st0" points="210.7,203.9 207.7,204.2 208.2,205.3 211.1,205 "/>
<path class="st0" d="M235.4,252.2c-0.3,2.2-0.6,5,1.4,6.6c0.9,0.8,2.3,1.1,3.4,1.3c5.8,1.5,8-5,9-9.4c0-0.1-2-0.6-2-0.6
	c-0.9,4.3-3,10.6-8.7,9.5c0.7,0.2,1.3,0.4,2,0.6c-3.4-1.1-3.3-4.4-3-7.4C237.4,252.6,235.3,252.3,235.4,252.2L235.4,252.2z"/>
<g>
	<g class="st1">
		<path class="st0" d="M39.8,92.1c1.2,0.1,2.7,0.4,4,1c1.4,0.6,2.4,1.3,4,1.5c0.4,0,0.2-1.4,0.2-1.6c0-0.4,0.1-0.8,0.1-1.1
			c0-0.1,0-0.5,0-0.5c-1.6-0.2-2.7-0.9-4-1.5s-2.8-0.9-4-1c-0.1,0-0.1,0.5-0.1,0.5c-0.1,0.4-0.1,0.7-0.1,1.1s-0.1,0.8-0.1,1.1
			C39.8,91.7,39.8,92.1,39.8,92.1L39.8,92.1L39.8,92.1z"/>
	</g>
	<g class="st2">
		<path class="st0" d="M39.8,92.1c1.2,0.1,2.6,0.4,4,1c1.3,0.6,2.4,1.3,4,1.5c0.4,0,0.2-1.4,0.2-1.6c0-0.4,0.1-0.7,0.1-1.1
			c0-0.1,0-0.5,0-0.5c-1.6-0.2-2.6-0.9-4-1.5c-1.3-0.6-2.7-0.9-4-1c-0.1,0-0.1,0.5-0.1,0.5c0,0.4,0,0.8,0,1.1c0,0.4-0.1,0.7-0.1,1.1
			C39.8,91.7,39.9,92.1,39.8,92.1L39.8,92.1L39.8,92.1z"/>
	</g>
	<g class="st3">
		<path class="st0" d="M39.8,92.1c1.2,0.1,2.6,0.4,3.9,1c1.3,0.6,2.4,1.3,3.9,1.5c0.4,0,0.2-1.4,0.2-1.5c0-0.4,0.1-0.7,0.1-1.1
			c0-0.1,0-0.5,0-0.5c-1.5-0.2-2.6-0.9-3.9-1.5c-1.3-0.6-2.7-0.9-3.9-1C40,89,40,89.5,40,89.4c-0.1,0.4-0.1,0.7-0.1,1.1
			s-0.1,0.7-0.1,1.1C39.9,91.7,39.9,92.1,39.8,92.1L39.8,92.1L39.8,92.1z"/>
	</g>
	<g class="st4">
		<path class="st0" d="M39.9,92.1c1.2,0.1,2.6,0.4,3.9,1c1.3,0.6,2.4,1.3,3.9,1.5c0.4,0,0.2-1.4,0.2-1.5c0-0.4,0.1-0.7,0.1-1.1
			c0-0.1,0-0.5,0-0.5c-1.5-0.2-2.6-0.9-3.9-1.5c-1.3-0.6-2.7-0.9-3.9-1c-0.1,0-0.1,0.5-0.1,0.4C40,89.8,40,90.1,40,90.5
			s-0.1,0.7-0.1,1.1C39.9,91.7,40,92.1,39.9,92.1L39.9,92.1L39.9,92.1z"/>
	</g>
	<g class="st5">
		<path class="st0" d="M39.9,92.1c1.2,0.1,2.6,0.4,3.9,1c1.3,0.6,2.4,1.3,3.9,1.5c0.3,0,0.2-1.4,0.2-1.5c0-0.4,0.1-0.7,0.1-1.1
			c0-0.1,0-0.5,0-0.5c-1.5-0.2-2.5-0.9-3.9-1.5c-1.3-0.6-2.7-0.9-3.9-1c-0.1,0-0.1,0.5-0.1,0.4C40,89.8,40,90.1,40,90.5
			s-0.1,0.7-0.1,1.1C39.9,91.7,40,92.1,39.9,92.1L39.9,92.1L39.9,92.1z"/>
	</g>
	<g class="st6">
		<path class="st0" d="M40,92.1c1.2,0.1,2.5,0.4,3.8,1s2.3,1.3,3.8,1.4c0.3,0,0.2-1.3,0.2-1.5c0-0.4,0.1-0.7,0.1-1.1
			c0-0.1,0-0.5,0-0.5c-1.5-0.2-2.5-0.9-3.8-1.4s-2.6-0.9-3.8-1c-0.1,0-0.1,0.5-0.1,0.4c-0.1,0.4-0.1,0.7-0.1,1.1S40,91.2,40,91.6
			C40,91.7,40,92.1,40,92.1L40,92.1L40,92.1z"/>
	</g>
	<g class="st7">
		<path class="st0" d="M40,92.1c1.2,0.1,2.5,0.4,3.8,0.9s2.3,1.2,3.8,1.4c0.3,0,0.2-1.3,0.2-1.5c0-0.4,0.1-0.7,0.1-1.1
			c0-0.1,0-0.5,0-0.4c-1.5-0.2-2.5-0.9-3.8-1.4s-2.6-0.9-3.8-0.9c-0.1,0-0.1,0.5-0.1,0.4c-0.1,0.3-0.1,0.7-0.1,1.1S40,91.3,40,91.7
			C40,91.7,40.1,92.1,40,92.1L40,92.1L40,92.1z"/>
	</g>
	<g class="st8">
		<path class="st0" d="M40.1,92.1c1.2,0.1,2.5,0.4,3.7,0.9c1.3,0.5,2.3,1.2,3.7,1.4c0.3,0,0.2-1.3,0.2-1.5c0-0.3,0.1-0.7,0.1-1.1
			c0,0,0-0.5,0-0.4c-1.5-0.2-2.5-0.9-3.7-1.4c-1.3-0.5-2.6-0.9-3.7-0.9c-0.1,0-0.1,0.5-0.1,0.4c-0.1,0.3-0.1,0.7-0.1,1
			s-0.1,0.7-0.1,1.1C40.1,91.7,40.1,92.1,40.1,92.1L40.1,92.1z"/>
	</g>
	<g class="st9">
		<path class="st0" d="M40.1,92.1c1.1,0.1,2.5,0.4,3.7,0.9s2.3,1.2,3.7,1.4c0.3,0,0.2-1.3,0.2-1.5c0-0.3,0.1-0.7,0.1-1v-0.4
			c-1.4-0.2-2.4-0.9-3.7-1.4c-1.2-0.5-2.6-0.8-3.7-0.9c-0.1,0-0.1,0.5-0.1,0.4c-0.1,0.3-0.1,0.7-0.1,1s-0.1,0.7-0.1,1
			C40.1,91.7,40.2,92.1,40.1,92.1L40.1,92.1L40.1,92.1z"/>
	</g>
	<g class="st10">
		<path class="st0" d="M40.1,92.1c1.1,0.1,2.4,0.4,3.7,0.9c1.2,0.5,2.2,1.2,3.7,1.4c0.3,0,0.2-1.3,0.2-1.4c0-0.3,0.1-0.7,0.1-1v-0.4
			c-1.4-0.2-2.4-0.9-3.7-1.4c-1.2-0.5-2.5-0.8-3.7-0.9c-0.1,0-0.1,0.5-0.1,0.4c-0.1,0.3-0.1,0.7-0.1,1s-0.1,0.7-0.1,1
			C40.2,91.7,40.2,92.1,40.1,92.1L40.1,92.1L40.1,92.1z"/>
	</g>
	<g class="st11">
		<path class="st0" d="M40.2,92c1.1,0.1,2.4,0.4,3.6,0.9c1.2,0.5,2.2,1.2,3.6,1.4c0.3,0,0.2-1.3,0.2-1.4c0-0.3,0.1-0.7,0.1-1v-0.4
			c-1.4-0.2-2.4-0.9-3.6-1.4c-1.2-0.5-2.5-0.8-3.6-0.9c-0.1,0-0.1,0.5-0.1,0.4c-0.1,0.3-0.1,0.7-0.1,1s-0.1,0.7-0.1,1
			C40.2,91.7,40.2,92,40.2,92L40.2,92L40.2,92z"/>
	</g>
	<g class="st12">
		<path class="st0" d="M40.2,92c1.1,0.1,2.4,0.4,3.6,0.9c1.2,0.5,2.2,1.2,3.6,1.4c0.3,0,0.2-1.3,0.2-1.4c0-0.3,0.1-0.7,0.1-1v-0.4
			c-1.4-0.2-2.4-0.8-3.6-1.4c-1.2-0.5-2.5-0.8-3.6-0.9c-0.1,0-0.1,0.4-0.1,0.4c-0.1,0.3-0.1,0.7-0.1,1s-0.1,0.7-0.1,1
			C40.2,91.7,40.3,92,40.2,92L40.2,92L40.2,92z"/>
	</g>
	<g class="st13">
		<path class="st0" d="M40.3,92c1.1,0.1,2.4,0.4,3.5,0.9c1.2,0.5,2.2,1.2,3.5,1.4c0.3,0,0.2-1.2,0.2-1.4c0-0.3,0.1-0.7,0.1-1v-0.4
			c-1.4-0.2-2.3-0.8-3.5-1.4c-1.2-0.5-2.4-0.8-3.5-0.9c-0.1,0-0.1,0.4-0.1,0.4c-0.1,0.3-0.1,0.7-0.1,1s-0.1,0.7-0.1,1
			C40.3,91.7,40.3,92,40.3,92L40.3,92z"/>
	</g>
	<g class="st14">
		<path class="st0" d="M40.3,92c1.1,0.1,2.3,0.4,3.5,0.9s2.1,1.2,3.5,1.4c0.3,0,0.2-1.2,0.2-1.4c0-0.3,0.1-0.7,0.1-1v-0.4
			c-1.4-0.2-2.3-0.8-3.5-1.4c-1.2-0.5-2.4-0.8-3.5-0.9c-0.1,0-0.1,0.4-0.1,0.4c-0.1,0.3-0.1,0.6-0.1,1c0,0.3-0.1,0.7-0.1,1
			C40.3,91.7,40.4,92,40.3,92L40.3,92L40.3,92z"/>
	</g>
	<g class="st15">
		<path class="st0" d="M40.3,92c1.1,0.1,2.3,0.4,3.5,0.9s2.1,1.2,3.5,1.3c0.3,0,0.2-1.2,0.2-1.4c0-0.3,0.1-0.6,0.1-1v-0.4
			c-1.4-0.2-2.3-0.8-3.5-1.3s-2.4-0.8-3.5-0.9c-0.1,0-0.1,0.4-0.1,0.4c-0.1,0.3-0.1,0.6-0.1,1c0,0.3-0.1,0.6-0.1,1
			C40.4,91.7,40.4,92,40.3,92L40.3,92z"/>
	</g>
	<g class="st16">
		<path class="st0" d="M40.4,92c1.1,0.1,2.3,0.4,3.4,0.9c1.2,0.5,2.1,1.1,3.4,1.3c0.3,0,0.2-1.2,0.2-1.3c0-0.3,0.1-0.6,0.1-1v-0.4
			c-1.3-0.2-2.3-0.8-3.4-1.3c-1.1-0.5-2.4-0.8-3.4-0.9c-0.1,0-0.1,0.4-0.1,0.4c-0.1,0.3-0.1,0.6-0.1,1c0,0.3-0.1,0.6-0.1,1
			C40.4,91.6,40.4,92,40.4,92L40.4,92L40.4,92z"/>
	</g>
	<g class="st17">
		<path class="st0" d="M40.4,92c1,0.1,2.2,0.4,3.4,0.9c1.1,0.5,2.1,1.1,3.4,1.3c0.3,0,0.2-1.2,0.2-1.3c0-0.3,0.1-0.6,0.1-0.9v-0.4
			c-1.3-0.2-2.2-0.8-3.4-1.3c-1.1-0.5-2.3-0.8-3.4-0.9c-0.1,0-0.1,0.4-0.1,0.4c-0.1,0.3-0.1,0.6-0.1,0.9s-0.1,0.6-0.1,0.9
			C40.4,91.6,40.5,92,40.4,92L40.4,92L40.4,92z"/>
	</g>
	<g class="st18">
		<path class="st0" d="M40.5,92c1,0.1,2.2,0.4,3.3,0.9s2,1.1,3.3,1.3c0.3,0,0.2-1.2,0.2-1.3c0-0.3,0.1-0.6,0.1-0.9v-0.4
			c-1.3-0.2-2.2-0.8-3.3-1.3s-2.3-0.8-3.3-0.9c-0.1,0-0.1,0.4-0.1,0.4c-0.1,0.3-0.1,0.6-0.1,0.9s-0.1,0.6-0.1,0.9
			C40.5,91.6,40.5,92,40.5,92L40.5,92L40.5,92z"/>
	</g>
	<g class="st19">
		<path class="st0" d="M40.5,92c1,0.1,2.2,0.4,3.3,0.9s2,1.1,3.3,1.3c0.3,0,0.2-1.2,0.2-1.3c0-0.3,0.1-0.6,0.1-0.9v-0.4
			c-1.3-0.2-2.2-0.8-3.3-1.3s-2.3-0.8-3.3-0.9c-0.1,0-0.1,0.4-0.1,0.4c-0.1,0.3-0.1,0.6-0.1,0.9s-0.1,0.6-0.1,0.9
			C40.5,91.6,40.6,92,40.5,92L40.5,92z"/>
	</g>
	<g class="st20">
		<path class="st0" d="M40.5,92c1,0.1,2.2,0.4,3.3,0.9s2,1.1,3.3,1.3c0.3,0,0.2-1.1,0.2-1.3c0-0.3,0.1-0.6,0.1-0.9v-0.4
			c-1.3-0.2-2.2-0.8-3.3-1.3s-2.3-0.8-3.3-0.9c-0.1,0-0.1,0.4-0.1,0.4c-0.1,0.3-0.1,0.6-0.1,0.9s-0.1,0.6-0.1,0.9
			C40.6,91.6,40.6,92,40.5,92L40.5,92L40.5,92z"/>
	</g>
	<g class="st21">
		<path class="st0" d="M40.6,92c1,0.1,2.1,0.4,3.2,0.9c1.1,0.5,2,1.1,3.2,1.3c0.3,0,0.2-1.1,0.2-1.3c0-0.3,0.1-0.6,0.1-0.9v-0.4
			c-1.3-0.2-2.1-0.8-3.2-1.3c-1.1-0.5-2.2-0.8-3.2-0.9c-0.1,0-0.1,0.4-0.1,0.4c-0.1,0.3-0.1,0.6-0.1,0.9s-0.1,0.6-0.1,0.9
			C40.6,91.6,40.6,92,40.6,92L40.6,92L40.6,92z"/>
	</g>
	<g class="st22">
		<path class="st0" d="M40.6,92c1,0.1,2.1,0.4,3.2,0.9c1.1,0.5,1.9,1.1,3.2,1.3c0.3,0,0.2-1.1,0.2-1.2c0-0.3,0.1-0.6,0.1-0.9v-0.4
			c-1.3-0.2-2.1-0.8-3.2-1.3c-1.1-0.5-2.2-0.8-3.2-0.9c-0.1,0-0.1,0.4-0.1,0.4c-0.1,0.3-0.1,0.6-0.1,0.9s-0.1,0.6-0.1,0.9
			C40.6,91.6,40.7,92,40.6,92L40.6,92L40.6,92z"/>
	</g>
	<g class="st23">
		<path class="st0" d="M40.7,91.9c1,0.1,2.1,0.4,3.2,0.8c1.1,0.5,1.9,1.1,3.1,1.2c0.3,0,0.2-1.1,0.2-1.2c0-0.3,0.1-0.6,0.1-0.9v-0.4
			c-1.2-0.2-2.1-0.8-3.1-1.2c-1.1-0.5-2.2-0.8-3.2-0.8c-0.1,0-0.1,0.4-0.1,0.4c0,0.3-0.1,0.6-0.1,0.9s-0.1,0.6-0.1,0.9
			C40.7,91.6,40.7,91.9,40.7,91.9L40.7,91.9L40.7,91.9z"/>
	</g>
	<g class="st24">
		<path class="st0" d="M40.7,91.9c1,0.1,2.1,0.4,3.1,0.8c1,0.5,1.9,1.1,3.1,1.2c0.3,0,0.2-1.1,0.2-1.2c0-0.3,0.1-0.6,0.1-0.9v-0.4
			c-1.2-0.2-2.1-0.8-3.1-1.2c-1-0.5-2.1-0.7-3.1-0.8c-0.1,0-0.1,0.4-0.1,0.3c0,0.3-0.1,0.6-0.1,0.9s-0.1,0.6-0.1,0.9
			C40.7,91.6,40.8,91.9,40.7,91.9L40.7,91.9L40.7,91.9z"/>
	</g>
	<g class="st25">
		<path class="st0" d="M40.7,91.9c1,0.1,2,0.4,3.1,0.8c1,0.5,1.9,1,3.1,1.2c0.3,0,0.2-1.1,0.2-1.2c0-0.3,0.1-0.6,0.1-0.9v-0.4
			c-1.2-0.2-2-0.8-3.1-1.2c-1-0.5-2.1-0.7-3.1-0.8c-0.1,0-0.1,0.4-0.1,0.3c0,0.3-0.1,0.6-0.1,0.8c0,0.3-0.1,0.6-0.1,0.9
			C40.8,91.6,40.8,91.9,40.7,91.9L40.7,91.9L40.7,91.9z"/>
	</g>
	<g class="st26">
		<path class="st0" d="M40.8,91.9c0.9,0.1,2,0.4,3,0.8c1,0.5,1.8,1,3,1.2c0.3,0,0.2-1.1,0.2-1.2c0-0.3,0.1-0.6,0.1-0.8v-0.4
			c-1.2-0.2-2-0.8-3-1.2c-1-0.5-2.1-0.7-3-0.8c-0.1,0-0.1,0.4-0.1,0.3c0,0.3-0.1,0.6-0.1,0.8c0,0.3-0.1,0.6-0.1,0.8
			C40.8,91.6,40.8,91.9,40.8,91.9L40.8,91.9L40.8,91.9z"/>
	</g>
	<g class="st27">
		<path class="st0" d="M40.8,91.9c0.9,0.1,2,0.4,3,0.8c1,0.5,1.8,1,3,1.2c0.3,0,0.2-1,0.2-1.2c0-0.3,0.1-0.6,0.1-0.8v-0.4
			c-1.2-0.2-2-0.7-3-1.2s-2.1-0.7-3-0.8c-0.1,0-0.1,0.4-0.1,0.3c0,0.3-0.1,0.5-0.1,0.8s-0.1,0.6-0.1,0.8
			C40.8,91.6,40.9,91.9,40.8,91.9L40.8,91.9L40.8,91.9z"/>
	</g>
	<g class="st28">
		<path class="st0" d="M40.9,91.9c0.9,0.1,2,0.4,3,0.8c1,0.5,1.8,1,3,1.2c0.3,0,0.2-1,0.2-1.1c0-0.3,0.1-0.5,0.1-0.8
			c0,0,0-0.4,0-0.3c-1.2-0.2-2-0.7-2.9-1.2c-1-0.4-2-0.7-3-0.8c-0.1,0-0.1,0.4-0.1,0.3c0,0.3-0.1,0.5-0.1,0.8S41,91.3,41,91.6
			C40.9,91.6,40.9,91.9,40.9,91.9L40.9,91.9L40.9,91.9z"/>
	</g>
	<g class="st29">
		<path class="st0" d="M40.9,91.9c0.9,0.1,1.9,0.4,2.9,0.8s1.8,1,2.9,1.2c0.3,0,0.2-1,0.2-1.1c0-0.3,0.1-0.5,0.1-0.8v-0.3
			c-1.1-0.2-1.9-0.7-2.9-1.2c-1-0.4-2-0.7-2.9-0.8c-0.1,0-0.1,0.4-0.1,0.3c0,0.3-0.1,0.5-0.1,0.8s-0.1,0.5-0.1,0.8
			C40.9,91.6,41,91.9,40.9,91.9L40.9,91.9z"/>
	</g>
	<g class="st30">
		<path class="st0" d="M40.9,91.9c0.9,0.1,1.9,0.4,2.9,0.8s1.7,1,2.9,1.2c0.3,0,0.2-1,0.2-1.1c0-0.3,0.1-0.5,0.1-0.8v-0.3
			c-1.1-0.2-1.9-0.7-2.9-1.2c-1-0.4-2-0.7-2.9-0.8c-0.1,0-0.1,0.4-0.1,0.3c0,0.3-0.1,0.5-0.1,0.8s-0.1,0.5-0.1,0.8
			C41,91.6,41,91.9,40.9,91.9L40.9,91.9z"/>
	</g>
	<g class="st31">
		<path class="st0" d="M41,91.9c0.9,0.1,1.9,0.4,2.8,0.8c1,0.4,1.7,1,2.8,1.2c0.3,0,0.2-1,0.2-1.1c0-0.3,0.1-0.5,0.1-0.8v-0.3
			c-1.1-0.2-1.9-0.7-2.8-1.2c-1-0.4-2-0.7-2.8-0.8c-0.1,0-0.1,0.3-0.1,0.3c0,0.3-0.1,0.5-0.1,0.8S41,91.3,41,91.6
			C41,91.6,41,91.9,41,91.9L41,91.9L41,91.9z"/>
	</g>
	<g class="st32">
		<path class="st0" d="M41,91.9c0.9,0.1,1.9,0.4,2.8,0.8c0.9,0.4,1.7,1,2.8,1.1c0.3,0,0.2-1,0.2-1.1c0-0.3,0.1-0.5,0.1-0.8v-0.3
			c-1.1-0.2-1.8-0.7-2.8-1.1c-0.9-0.4-1.9-0.7-2.8-0.8c-0.1,0-0.1,0.3-0.1,0.3c0,0.3-0.1,0.5-0.1,0.8S41,91.3,41,91.6
			C41,91.6,41.1,91.9,41,91.9L41,91.9L41,91.9z"/>
	</g>
	<g class="st33">
		<path class="st0" d="M41.1,91.9c0.9,0.1,1.8,0.4,2.8,0.8c0.9,0.4,1.7,1,2.8,1.1c0.2,0,0.2-1,0.2-1.1c0-0.3,0.1-0.5,0.1-0.8v-0.3
			c-1.1-0.2-1.8-0.7-2.8-1.1c-0.9-0.4-1.9-0.7-2.8-0.8c-0.1,0-0.1,0.3-0.1,0.3c0,0.2-0.1,0.5-0.1,0.8s-0.1,0.5-0.1,0.8
			C41.1,91.6,41.1,91.9,41.1,91.9L41.1,91.9z"/>
	</g>
	<g class="st34">
		<path class="st0" d="M41.1,91.9c0.8,0.1,1.8,0.4,2.7,0.8s1.6,0.9,2.7,1.1c0.2,0,0.2-0.9,0.2-1c0-0.2,0.1-0.5,0.1-0.7v-0.3
			c-1.1-0.2-1.8-0.7-2.7-1.1s-1.9-0.7-2.7-0.8c-0.1,0-0.1,0.3-0.1,0.3c0,0.2-0.1,0.5-0.1,0.7s-0.1,0.5-0.1,0.7
			C41.1,91.6,41.2,91.9,41.1,91.9L41.1,91.9z"/>
	</g>
	<g class="st35">
		<path class="st0" d="M41.2,91.8c0.8,0.1,1.8,0.4,2.7,0.8s1.6,0.9,2.7,1.1c0.2,0,0.2-0.9,0.2-1c0-0.2,0.1-0.5,0.1-0.7v-0.3
			c-1.1-0.2-1.8-0.7-2.7-1.1s-1.9-0.7-2.7-0.8c-0.1,0-0.1,0.3-0.1,0.3c0,0.2-0.1,0.5-0.1,0.7s-0.1,0.5-0.1,0.7
			C41.2,91.6,41.2,91.8,41.2,91.8L41.2,91.8L41.2,91.8z"/>
	</g>
	<g class="st36">
		<path class="st0" d="M41.2,91.8c0.8,0.1,1.8,0.4,2.6,0.8c0.9,0.4,1.6,0.9,2.6,1.1c0.2,0,0.2-0.9,0.2-1c0-0.2,0.1-0.5,0.1-0.7v-0.3
			c-1-0.2-1.7-0.7-2.6-1.1c-0.9-0.4-1.8-0.7-2.6-0.8c-0.1,0-0.1,0.3-0.1,0.3c0,0.2-0.1,0.5-0.1,0.7s-0.1,0.5-0.1,0.7
			C41.2,91.6,41.2,91.8,41.2,91.8L41.2,91.8L41.2,91.8z"/>
	</g>
	<g class="st37">
		<path class="st0" d="M41.2,91.8c0.8,0.1,1.7,0.4,2.6,0.8c0.9,0.4,1.6,0.9,2.6,1.1c0.2,0,0.2-0.9,0.2-1c0-0.2,0.1-0.5,0.1-0.7v-0.3
			c-1-0.2-1.7-0.7-2.6-1.1c-0.9-0.4-1.8-0.7-2.6-0.8c-0.1,0-0.1,0.3-0.1,0.3c0,0.2-0.1,0.5-0.1,0.7s-0.1,0.5-0.1,0.7
			C41.3,91.6,41.3,91.8,41.2,91.8L41.2,91.8L41.2,91.8z"/>
	</g>
	<g class="st38">
		<path class="st0" d="M41.3,91.8c0.8,0.1,1.7,0.3,2.6,0.8c0.9,0.4,1.6,0.9,2.6,1.1c0.2,0,0.2-0.9,0.2-1c0-0.2,0.1-0.5,0.1-0.7v-0.3
			c-1-0.2-1.7-0.7-2.6-1.1c-0.9-0.4-1.8-0.7-2.6-0.8c-0.1,0-0.1,0.3-0.1,0.3c0,0.2-0.1,0.5-0.1,0.7s-0.1,0.5-0.1,0.7
			C41.3,91.6,41.3,91.8,41.3,91.8L41.3,91.8z"/>
	</g>
	<g class="st39">
		<path class="st0" d="M41.3,91.8c0.8,0.1,1.7,0.3,2.5,0.7c0.8,0.4,1.5,0.9,2.5,1.1c0.2,0,0.2-0.9,0.2-1c0-0.2,0.1-0.5,0.1-0.7v-0.3
			c-1-0.2-1.7-0.7-2.5-1.1s-1.7-0.7-2.5-0.7c-0.1,0-0.1,0.3-0.1,0.3c0,0.2-0.1,0.5-0.1,0.7s-0.1,0.5-0.1,0.7
			C41.3,91.6,41.4,91.8,41.3,91.8L41.3,91.8L41.3,91.8z"/>
	</g>
	<g class="st40">
		<path class="st0" d="M41.4,91.8c0.8,0.1,1.7,0.3,2.5,0.7c0.8,0.4,1.5,0.9,2.5,1.1c0.2,0,0.2-0.8,0.2-0.9c0-0.2,0.1-0.5,0.1-0.7
			v-0.3c-1-0.2-1.6-0.7-2.5-1.1c-0.8-0.4-1.7-0.6-2.5-0.7c-0.1,0-0.1,0.3-0.1,0.3c0,0.2-0.1,0.4-0.1,0.7c0,0.2-0.1,0.5-0.1,0.7
			C41.4,91.5,41.4,91.8,41.4,91.8L41.4,91.8z"/>
	</g>
	<g class="st41">
		<path class="st0" d="M41.4,91.8c0.8,0.1,1.6,0.3,2.4,0.7c0.8,0.4,1.5,0.9,2.4,1c0.2,0,0.2-0.8,0.2-0.9c0-0.2,0.1-0.4,0.1-0.7v-0.3
			c-1-0.2-1.6-0.6-2.4-1c-0.8-0.4-1.7-0.6-2.4-0.7c-0.1,0-0.1,0.3-0.1,0.3c0,0.2-0.1,0.4-0.1,0.7c0,0.2-0.1,0.4-0.1,0.7
			C41.4,91.5,41.4,91.8,41.4,91.8L41.4,91.8L41.4,91.8z"/>
	</g>
	<g class="st42">
		<path class="st0" d="M41.4,91.8c0.8,0.1,1.6,0.3,2.4,0.7c0.8,0.4,1.5,0.9,2.4,1c0.2,0,0.2-0.8,0.2-0.9c0-0.2,0.1-0.4,0.1-0.7v-0.3
			c-0.9-0.2-1.6-0.6-2.4-1c-0.8-0.4-1.7-0.6-2.4-0.7c-0.1,0-0.1,0.3-0.1,0.3c0,0.2-0.1,0.4-0.1,0.7c0,0.2-0.1,0.4-0.1,0.7
			C41.5,91.5,41.5,91.8,41.4,91.8L41.4,91.8L41.4,91.8z"/>
	</g>
	<g class="st43">
		<path class="st0" d="M41.5,91.8c0.7,0.1,1.6,0.3,2.4,0.7c0.8,0.4,1.4,0.8,2.4,1c0.2,0,0.2-0.8,0.2-0.9c0-0.2,0.1-0.4,0.1-0.6v-0.3
			c-0.9-0.2-1.6-0.6-2.4-1c-0.8-0.4-1.6-0.6-2.4-0.7c-0.1,0-0.1,0.3-0.1,0.3c0,0.2-0.1,0.4-0.1,0.6s-0.1,0.4-0.1,0.6
			C41.5,91.5,41.5,91.8,41.5,91.8L41.5,91.8L41.5,91.8z"/>
	</g>
	<g class="st44">
		<path class="st0" d="M41.5,91.8c0.7,0.1,1.6,0.3,2.3,0.7c0.8,0.4,1.4,0.8,2.3,1c0.2,0,0.2-0.8,0.2-0.9c0-0.2,0.1-0.4,0.1-0.6v-0.3
			c-0.9-0.2-1.5-0.6-2.3-1s-1.6-0.6-2.3-0.7l-0.1,0.3c0,0.2-0.1,0.4-0.1,0.6s-0.1,0.4-0.1,0.6C41.5,91.5,41.6,91.8,41.5,91.8
			L41.5,91.8L41.5,91.8z"/>
	</g>
	<g class="st45">
		<path class="st0" d="M41.6,91.8c0.7,0.1,1.5,0.3,2.3,0.7c0.8,0.4,1.4,0.8,2.3,1c0.2,0,0.2-0.8,0.2-0.9c0-0.2,0.1-0.4,0.1-0.6v-0.3
			c-0.9-0.2-1.5-0.6-2.3-1s-1.6-0.6-2.3-0.7c0,0-0.1,0.3-0.1,0.2c0,0.2-0.1,0.4-0.1,0.6s-0.1,0.4-0.1,0.6
			C41.6,91.5,41.6,91.8,41.6,91.8L41.6,91.8z"/>
	</g>
	<g class="st46">
		<path class="st0" d="M41.6,91.7c0.7,0.1,1.5,0.3,2.3,0.7c0.8,0.4,1.4,0.8,2.2,1c0.2,0,0.2-0.8,0.2-0.8c0-0.2,0.1-0.4,0.1-0.6v-0.3
			c-0.9-0.2-1.5-0.6-2.2-1c-0.8-0.4-1.6-0.6-2.3-0.7c0,0-0.1,0.3-0.1,0.2c0,0.2-0.1,0.4-0.1,0.6s-0.1,0.4-0.1,0.6
			C41.6,91.5,41.6,91.8,41.6,91.7L41.6,91.7L41.6,91.7z"/>
	</g>
	<g class="st47">
		<path class="st0" d="M41.6,91.7c0.7,0.1,1.5,0.3,2.2,0.7c0.7,0.4,1.3,0.8,2.2,1c0.2,0,0.2-0.7,0.2-0.8c0-0.2,0.1-0.4,0.1-0.6v-0.3
			c-0.9-0.2-1.5-0.6-2.2-1s-1.5-0.6-2.2-0.7c0,0-0.1,0.3-0.1,0.2c0,0.2-0.1,0.4-0.1,0.6s-0.1,0.4-0.1,0.6
			C41.7,91.5,41.7,91.7,41.6,91.7L41.6,91.7L41.6,91.7z"/>
	</g>
	<g class="st48">
		<path class="st0" d="M41.7,91.7c0.7,0.1,1.5,0.3,2.2,0.7c0.7,0.4,1.3,0.8,2.2,1c0.2,0,0.2-0.7,0.2-0.8c0-0.2,0.1-0.4,0.1-0.6
			c0,0,0-0.3,0-0.2c-0.9-0.2-1.4-0.6-2.2-1c-0.7-0.4-1.5-0.6-2.2-0.7c0,0-0.1,0.3-0.1,0.2c0,0.2-0.1,0.4-0.1,0.6s-0.1,0.4-0.1,0.6
			C41.7,91.5,41.7,91.7,41.7,91.7L41.7,91.7L41.7,91.7z"/>
	</g>
	<g class="st49">
		<path class="st0" d="M41.7,91.7c0.7,0.1,1.4,0.3,2.1,0.7c0.7,0.4,1.3,0.8,2.1,1c0.2,0,0.2-0.7,0.2-0.8c0-0.2,0.1-0.4,0.1-0.6
			c0,0,0-0.3,0-0.2c-0.8-0.2-1.4-0.6-2.1-1c-0.7-0.4-1.5-0.6-2.1-0.7c0,0-0.1,0.3-0.1,0.2c0,0.2-0.1,0.4-0.1,0.6s-0.1,0.4-0.1,0.6
			C41.7,91.5,41.8,91.7,41.7,91.7L41.7,91.7L41.7,91.7z"/>
	</g>
	<g class="st50">
		<path class="st0" d="M41.8,91.7c0.7,0.1,1.4,0.3,2.1,0.7c0.7,0.4,1.3,0.8,2.1,0.9c0.2,0,0.2-0.7,0.2-0.8c0-0.2,0.1-0.4,0.1-0.6
			v-0.2c-0.8-0.2-1.4-0.6-2.1-0.9c-0.7-0.3-1.4-0.6-2.1-0.7L42,90.3c0,0.2-0.1,0.4-0.1,0.6s-0.1,0.4-0.1,0.6
			C41.8,91.5,41.8,91.7,41.8,91.7L41.8,91.7L41.8,91.7z"/>
	</g>
	<g class="st51">
		<path class="st0" d="M41.8,91.7c0.6,0.1,1.4,0.3,2.1,0.7c0.7,0.3,1.2,0.8,2,0.9c0.2,0,0.2-0.7,0.2-0.8c0-0.2,0.1-0.4,0.1-0.6v-0.2
			c-0.8-0.2-1.4-0.6-2-0.9c-0.7-0.3-1.4-0.6-2.1-0.7L42,90.3c0,0.2-0.1,0.4-0.1,0.5c0,0.2-0.1,0.4-0.1,0.6
			C41.8,91.5,41.8,91.7,41.8,91.7L41.8,91.7L41.8,91.7z"/>
	</g>
	<path class="st0" d="M41.8,91.7c0.6,0.1,1.3,0.3,2,0.7c0.7,0.3,1.2,0.8,2,0.9c0.2,0,0.2-0.7,0.2-0.8c0-0.2,0.1-0.4,0.1-0.5v-0.2
		c-0.8-0.2-1.3-0.6-2-0.9s-1.4-0.6-2-0.7L42,90.4c0,0.2-0.1,0.4-0.1,0.5c0,0.2-0.1,0.4-0.1,0.5C41.9,91.5,41.9,91.7,41.8,91.7
		L41.8,91.7z"/>
</g>
<polygon class="st0" points="30.3,231.6 28.1,233.5 29.1,234.1 31.2,232.1 "/>
<polygon class="st0" points="6.2,262.7 5.1,260.7 4.5,261.4 5.6,263.4 "/>
<polygon class="st0" points="28.8,246.1 25.1,245.4 25.3,246.8 28.9,247.5 "/>
<path class="st0" d="M37.9,212.3c-1,1.4-0.7,4.2,0.5,5.4c1.5,1.5,3.5,0.5,5.2,0.1c1.8-0.4,3.7,0,3.9,2.2c0-0.5-0.1-0.9-0.1-1.4
	c-0.1,1.9-1.4,3-3,3.9c-1.2,0.6-3,1.2-3.1,2.8c0,0.5,0,1.4,0.2,1.9c0.4,1.3,1.9,1.3,3.1,1.5c0.6,0.1,1.1,0.3,1.5,0.8
	c0.2,0.3,0.1,0.7,0.2,0.2c-0.1,0.3-0.2,0.6-0.4,0.8c-0.7,0.9-1,1.3-0.9,2.4c0,0.8,0.1,1.5,0.7,2.1c1.3,1.2,3.9,0,5.2-0.6
	c0.2-0.1-0.2-1.3-0.1-1.4c-1.7,0.8-5.3,2.2-5.9-0.6l0.1,1.3c-0.1-1.3,1.3-1.7,1.4-2.9c0.1-0.5,0-1.2-0.1-1.8c-0.2-1-0.8-1.6-1.9-1.8
	c-1.2-0.2-3-0.3-3.1-1.8c0,0.4,0,0.8,0.1,1.2c0.4-2.4,3.7-2.7,5.1-4.3c1-1.1,1.1-2.4,0.9-3.8c-0.3-2.6-2.7-2.5-4.7-2
	c-1.2,0.3-2.7,0.8-3.9,0c-0.8-0.5-1.4-1.5-1.4-2.5c0,0.4,0,0.8,0.1,1.2c0-0.7,0.2-1.2,0.6-1.8C38.2,213.4,37.7,212.6,37.9,212.3
	L37.9,212.3L37.9,212.3z"/>
<path class="st0" d="M15.5,250.4c-1,1.4-0.7,4.2,0.5,5.4c1.5,1.5,3.5,0.5,5.2,0.1c1.8-0.4,3.7,0,3.9,2.2c0-0.5-0.1-0.9-0.1-1.4
	c-0.1,1.9-1.4,3-3,3.9c-1.2,0.6-3,1.2-3.1,2.8c0,0.5,0,1.4,0.2,1.9c0.4,1.3,1.9,1.3,3.1,1.5c0.6,0.1,1.1,0.3,1.5,0.8
	c0.2,0.3,0.1,0.7,0.2,0.2c-0.1,0.3-0.2,0.6-0.4,0.8c-0.7,0.9-1,1.3-0.9,2.4c0,0.8,0.1,1.5,0.7,2.1c1.3,1.2,3.9,0,5.2-0.6
	c0.2-0.1-0.2-1.3-0.1-1.4c-1.7,0.8-5.3,2.2-5.9-0.6l0.1,1.3c-0.1-1.3,1.3-1.7,1.4-2.9c0.1-0.5,0-1.2-0.1-1.8c-0.2-1-0.8-1.6-1.9-1.8
	c-1.2-0.2-3-0.3-3.1-1.8c0,0.4,0,0.8,0.1,1.2c0.4-2.4,3.7-2.7,5.1-4.3c1-1.1,1.1-2.4,0.9-3.8c-0.3-2.6-2.7-2.5-4.7-2
	c-1.2,0.3-2.7,0.8-3.9,0c-0.8-0.5-1.4-1.5-1.4-2.5c0,0.4,0,0.8,0.1,1.2c0-0.7,0.2-1.2,0.6-1.8C15.8,251.5,15.3,250.7,15.5,250.4
	L15.5,250.4L15.5,250.4z"/>
<polygon class="st0" points="8,234.7 1,237 2.7,239.3 9.6,237 "/>
<polygon class="st0" points="51,199.7 49.9,197.8 49.3,198.4 50.4,200.4 "/>
<path class="st0" d="M23.7,182.2c1.2,1.5,1.2,3.7,0.2,5.3c0,0-0.4,0.5-0.2,0.3c0.2-0.2-0.1,0.1-0.2,0.1c-0.2,0.1-0.3,0.3-0.5,0.4
	c-0.5,0.3-1,0.4-1.5,0.6c-1.2,0.2-2.4,0.2-3.5,0.1c-2,0-4,0.1-5.4,1.7c-1.2,1.4-1.6,2.9-1.2,4.7c0.6,2.5,2.8,4.1,4.6,5.7
	c1.8,1.5,4.2,3.4,4.4,6c0.1,1.1-0.3,1.9-1.5,2.2c-1,0.3-2.2,0.2-3.2-0.3c-2.1-0.9-4-3.1-6.4-2.9c-1.6,0.1-2.8,1.9-2.5,3.4
	c0.6,2.7,3.8,3.6,5.9,2c0.2-0.2,0.3-0.5,0.5-0.6c-1.8,1.4-4.4,1-5.5-1c-0.4-0.7-0.8-2.2,0-2.8s2.2-0.2,3,0.1c2.2,0.9,4,3,6.5,3
	c1.4,0,2.7-0.9,3.3-2.1c1.1-2.2-0.9-4.7-2.4-6.1c-1.9-1.8-4.3-3.2-5.6-5.6c-0.9-1.6-1.5-4.6,0.4-5.8c2-1.3,4.5-0.7,6.7-0.9
	c1.9-0.1,3.3-0.8,4.5-2.2c1.3-1.7,1.6-4.1,0.2-5.8C24.3,181.6,23.6,182.2,23.7,182.2L23.7,182.2L23.7,182.2z"/>
</svg>
