<svg xmlns="http://www.w3.org/2000/svg" width="466.5331" height="214.269" viewBox="0 0 466.5331 214.269"><defs><style>.cls-1{fill:#ffe500;}.cls-2{fill:#070606;}</style></defs><g id="Layer_1" data-name="Layer 1"><path class="cls-1" d="M106.1513,207.7553c-2.6186,2.6933-8.08,7.0322-18.6289,7.0322-15.187,0-27.0825-10.0244-27.0825-26.6338,0-16.6836,12.0449-26.6338,27.0825-26.6338,10.6236,0,16.3843,4.4141,17.731,5.836l-3.7407,10.0253c-.9727-1.2724-6.5088-5.3867-13.3169-5.3867-8.753,0-15.4864,5.835-15.4864,15.9356s7.0328,15.86,15.4864,15.86a19.0249,19.0249,0,0,0,13.9155-5.4619Z"/><path class="cls-1" d="M164.1328,213.89H150.9653l-3.666-10.3994H128.8955L125.23,213.89H112.6606l19.4517-51.6963h12.5688Zm-19.6016-19.8252L138.0971,175.51l-6.4336,18.5546Z"/><path class="cls-1" d="M201.84,210.5238c-3.666,2.917-8.4541,4.2637-13.99,4.2637-7.4815,0-14.14-3.89-18.3291-7.78l5.9848-8.8281c3.7407,3.8906,9.5015,6.5088,13.4663,6.5088,3.8907,0,6.8828-1.87,6.8828-5.3115,0-3.5166-3.8154-4.8633-6.0595-5.6866s-6.1348-2.1689-7.8555-2.9169a20.16,20.16,0,0,1-6.1348-3.7413,12.74,12.74,0,0,1-4.04-9.95,14.5376,14.5376,0,0,1,5.3867-11.2968c2.9175-2.4688,7.6309-4.1143,13.6162-4.1143s12.8677,2.8428,16.3843,6.3584l-5.1626,8.4541c-2.9922-2.9922-7.6308-5.2363-11.521-5.2363s-6.7334,1.4961-6.7334,4.6377,2.918,4.34,5.2368,5.2373c2.2447.8974,6.06,2.2441,7.7061,2.918a20.705,20.705,0,0,1,7.1821,4.1894,13.505,13.505,0,0,1,4.04,9.95A15.6354,15.6354,0,0,1,201.84,210.5238Z"/><path class="cls-1" d="M232.4394,213.89H220.32V162.2689h12.12Z"/><path class="cls-1" d="M294.5346,213.89H282.1167l-22.669-35.0127s.2237,6.209.2237,11.6709V213.89h-11.82V162.2689h12.9429l22.1445,34.7129s-.2246-5.8349-.2246-11.2968V162.2689h11.82Z"/><path class="cls-1" d="M334.7114,214.7875c-15.3369,0-27.3818-9.95-27.3818-26.6338s12.0449-26.708,27.3818-26.708,27.3818,10.0244,27.3818,26.708S350.0483,214.7875,334.7114,214.7875Zm0-43.0176c-8.6035,0-15.1123,6.21-15.1123,16.085s6.5088,16.16,15.1123,16.16,15.1123-6.2851,15.1123-16.16C349.8237,178.0541,343.3149,171.77,334.7114,171.77Z"/></g><g id="Layer_2" data-name="Layer 2"><path class="cls-2" d="M453.5316,24.4337,423.2993-.0346,365.39,10.94,351.9113-.0346,307.6246,5.7817,300.4159-.0346,203.5823,6.7237,195.2645-.0346,143.9738,25.3245,123.7,8.6165c.2813.2279-66.0135,15.1753-66.0135,15.1753l-57.2351,95.8L30.6836,144.06q21.27-3.26,42.5991-6.0421,3.0529-9.3838,6.1432-18.7728l19.283,15.6068q19.3983-2.244,38.8279-4.1785c-1.1222-3.067-2.2266-6.1348-3.3395-9.2023l10.5256,8.5187q21.326-2.0021,42.6718-3.5077c.8222-2.2509,1.6573-4.5054,2.4822-6.7571l7.5122,6.08q47.1478-2.979,94.285-3.6819c.7918-2.0184,1.5923-4.041,2.3861-6.06l7.376,5.97c3.9245-.0268,32.31.0519,42.5742.2387q3.2142-8.2131,6.4333-16.4453L371.663,123q21.24.7351,42.46,2.012-5.7933-24.3163-11.6285-48.51C419.0213,59.8856,437.1159,41.489,453.5316,24.4337Z"/><path class="cls-1" d="M95.1763-.0346H9.2737C17.2989,6.4071,33.13,19.0033,33.0757,19.1661,32.2988,21.472,3.0711,111.2271.4513,119.5919q21.27-3.26,42.5991-6.0419Q49.4767,93.7992,56.058,74.0227q6.1263,18.1742,12.4187,36.3613,19.3985-2.244,38.8279-4.1785C102.904,94.18,94.3016,70.128,94.3016,70.128,131.9622,64.9644,154.3239-.0346,95.1763-.0346ZM80.9674,45.7432c-9.4306.4833-14.4123.8344-15.6354.8941q3.4827-10.2719,7.01-20.5567c4.1261-.11,8.2686-.27,12.3958-.27C96.5311,25.8107,95.5119,44.9978,80.9674,45.7432Z"/><path class="cls-1" d="M153.3685-.0346c-.0227.06-.045.12-.0677.18-2.977,7.8646-35.67,96.599-38.81,105.3765q21.3258-2.002,42.6718-3.5077c3.0941-8.4713,28.36-76.49,38.1021-102.0488C181.3116-.0731,167.3214.004,153.3685-.0346Z"/><path class="cls-1" d="M300.4159-.0346H206.1975c-.8688,2.2379-7.0372,18.1933-9.2219,23.8581q19.8483-.1837,39.7006-.2643c-5.11,4.3686-55.3739,48.716-60.3081,53.2361q-4.6187,12.2838-9.211,24.5418,47.1475-2.9792,94.2847-3.6819,4.5541-11.6067,9.1471-23.2328-19.866.1257-39.739.5287c9.8814-8.6534,54.9708-47.11,60.0251-51.36C293.9736,15.9116,297.3039,7.6646,300.4159-.0346Z"/><path class="cls-1" d="M423.2993-.0346h-46.85c-3.5154,3.5335-33.6385,33.6271-40.1446,40.0818,5.07-13.0253,10.536-26.9986,15.607-40.0818-13.9512-.11-28.0283.0838-41.9738,0-.7658,1.9262-26.78,67.3307-38.7335,97.5995,3.9245-.0268,37.4417.1453,42.574.2387,2.9716-7.5929,14.8758-38.0379,17.858-45.6726q4.8985,23.1554,9.7948,46.4011,21.24.7353,42.46,2.0119-5.7936-24.3162-11.6285-48.51C376.394,47.88,410.9875,12.7569,423.2993-.0346Z"/><polygon class="cls-2" points="445.887 2.343 448.324 2.343 448.324 10.04 451.185 10.04 451.185 2.343 453.623 2.343 453.623 -0.052 445.887 -0.052 445.887 2.343"/><polygon class="cls-2" points="465.787 -0.052 462.445 -0.052 460.721 5.462 458.972 -0.052 455.646 -0.052 454.885 10.04 457.713 10.04 457.984 4.949 459.598 10.04 461.821 10.04 463.416 4.975 463.707 10.04 466.533 10.04 465.787 -0.052"/></g></svg>