<?xml version="1.0" encoding="UTF-8"?><svg id="a" xmlns="http://www.w3.org/2000/svg" viewBox="0 0 466.5331 214.269"><defs><style>.b{fill:#ffe500;}</style></defs><g><path class="b" d="M110.5829,11.6298H20.2748c8.4368,6.772,25.0802,20.0142,25.0226,20.1853-.8167,2.4242-31.5433,96.7822-34.2975,105.576,14.9074-2.2844,29.8376-4.4062,44.7838-6.3518,4.5039-13.8424,9.0621-27.6916,13.6746-41.5543,4.2937,12.7374,8.6272,25.4817,13.0556,38.226,13.5955-1.5727,27.2018-3.0369,40.8191-4.3928-4.6263-12.6425-13.6698-37.9277-13.6698-37.9277,39.5919-5.4283,63.1004-73.7607,.9195-73.7607Zm-14.9376,48.1254c-9.9143,.5081-15.1514,.8773-16.4372,.94,2.4408-7.1991,4.8954-14.4051,7.3699-21.611,4.3377-.1153,8.6926-.2837,13.0315-.2837,12.3978,0,11.3262,20.1711-3.9641,20.9547Z"/><path class="b" d="M171.7594,11.6298c-.0239,.0631-.0473,.1261-.0712,.1892-3.1297,8.2679-37.4996,101.5529-40.8005,110.7806,14.9464-1.4032,29.9022-2.637,44.8602-3.6876,3.2527-8.9057,29.8139-80.4125,40.0561-107.2822-14.6685-.0405-29.3762,.0405-44.0446,0Z"/><path class="b" d="M326.3479,11.6298h-99.0503c-.9134,2.3526-7.3981,19.1263-9.6949,25.0816,13.9108-.1288,27.8275-.217,41.7366-.2778-5.3721,4.5927-58.2138,51.2143-63.4009,55.9663-3.237,8.6092-6.467,17.2047-9.6835,25.8003,33.0436-2.0879,66.0747-3.3759,99.12-3.8707,3.1917-8.1346,6.3971-16.2761,9.6161-24.4243-13.9232,.0881-27.8489,.2711-41.7769,.5558,10.3881-9.0972,57.7899-49.5263,63.1034-53.9936,3.2575-8.0737,6.7586-16.7437,10.0302-24.8376Z"/><path class="b" d="M455.5331,11.6298h-49.253c-3.6957,3.7147-35.3637,35.3516-42.2034,42.1373,5.3297-13.6932,11.0763-28.3831,16.4074-42.1373-14.6667-.1153-29.4656,.0881-44.1263,0-.8051,2.0249-28.1538,70.7836-40.7199,102.6048,4.1257-.0282,39.3619,.1527,44.7574,.2509,3.124-7.9822,15.6387-39.9886,18.7738-48.0149,3.4332,16.2286,6.8654,32.4911,10.2971,48.7808,14.886,.5153,29.7675,1.2202,44.6376,2.115-4.0605-17.0421-8.1353-34.0436-12.2249-50.9973,4.3435-4.3674,40.711-41.2918,53.6543-54.7393Z"/></g><g><path class="b" d="M138.377,196.9988c-2.1139,2.1743-6.5228,5.6769-15.0385,5.6769-12.2599,0-21.8628-8.0924-21.8628-21.5005,0-13.4681,9.7234-21.5005,21.8628-21.5005,8.576,0,13.2264,3.5633,14.3136,4.7111l-3.0198,8.0931c-.7852-1.0272-5.2543-4.3485-10.7503-4.3485-7.0659,0-12.5016,4.7104-12.5016,12.8642s5.6773,12.8035,12.5016,12.8035c5.194,0,8.9386-2.0536,11.2335-4.4092l3.2614,7.6099Z"/><path class="b" d="M185.1833,201.9512h-10.6296l-2.9594-8.3951h-14.8567l-2.9594,8.3951h-10.1464l15.7026-41.7326h10.1464l15.7026,41.7326Zm-15.8236-16.0042l-5.194-14.9785-5.1936,14.9785h10.3876Z"/><path class="b" d="M215.6233,199.2337c-2.9594,2.3548-6.8247,3.4419-11.2938,3.4419-6.0395,0-11.4144-3.14-14.7964-6.2807l4.8314-7.1266c3.0198,3.1408,7.6702,5.2543,10.8709,5.2543,3.1408,0,5.5562-1.5097,5.5562-4.2878,0-2.8388-3.0801-3.926-4.8917-4.5905-1.812-.6638-4.9524-1.7509-6.3414-2.3548-1.0268-.4833-3.1408-1.2684-4.9524-3.0201-1.812-1.691-3.2614-4.1065-3.2614-8.0324,0-3.9859,1.9326-7.1266,4.3485-9.1196,2.3552-1.9929,6.1601-3.3213,10.9919-3.3213s10.3876,2.2949,13.2264,5.1329l-4.1676,6.8247c-2.4155-2.4155-6.1601-4.2271-9.3005-4.2271s-5.4356,1.2077-5.4356,3.7438,2.3556,3.5034,4.2275,4.2279c1.812,.7245,4.8921,1.8116,6.2208,2.3556,1.1474,.4226,3.9256,1.5097,5.7979,3.382,1.7513,1.7517,3.2614,4.2878,3.2614,8.0324,0,3.9859-1.8723,7.6099-4.8921,9.9655Z"/><path class="b" d="M240.3248,201.9512h-9.7837v-41.6719h9.7837v41.6719Z"/><path class="b" d="M290.4521,201.9512h-10.0246l-18.2998-28.2645s.1805,5.0123,.1805,9.4215v18.843h-9.5417v-41.6719h10.4483l17.8765,28.0225s-.1813-4.7104-.1813-9.1196v-18.9029h9.5421v41.6719Z"/><path class="b" d="M322.8854,202.6756c-12.3809,0-22.1044-8.0324-22.1044-21.5005s9.7234-21.5604,22.1044-21.5604,22.1044,8.0924,22.1044,21.5604-9.7234,21.5005-22.1044,21.5005Zm0-34.7266c-6.9453,0-12.1996,5.0131-12.1996,12.9848s5.2543,13.0455,12.1996,13.0455,12.1996-5.0738,12.1996-13.0455c0-7.9118-5.2543-12.9848-12.1996-12.9848Z"/></g></svg>