<svg id="Layer_1" data-name="Layer 1" xmlns="http://www.w3.org/2000/svg" xmlns:xlink="http://www.w3.org/1999/xlink" width="600" height="600" viewBox="0 0 600 600"><defs><style>.cls-1{fill:none;}.cls-2{fill:#ff221d;}.cls-3{clip-path:url(#clip-path);}.cls-4{fill:#fc1010;}</style><clipPath id="clip-path"><rect class="cls-1" width="600" height="600"/></clipPath></defs><rect class="cls-2" width="600" height="600"/><g class="cls-3"><polygon class="cls-4" points="300 300 278.994 -146.989 321.006 -146.989 300 300"/><polygon class="cls-4" points="300 300 201.694 -136.55 243.069 -143.846 300 300"/><polygon class="cls-4" points="300 300 127.381 -112.847 166.861 -127.216 300 300"/><polygon class="cls-4" points="300 300 58.314 -76.6 94.698 -97.607 300 300"/><polygon class="cls-4" points="300 300 -3.411 -28.911 28.773 -55.916 300 300"/><polygon class="cls-4" points="300 300 -55.916 28.773 -28.91 -3.411 300 300"/><polygon class="cls-4" points="300 300 -97.607 94.698 -76.6 58.314 300 300"/><polygon class="cls-4" points="300 300 -127.216 166.86 -112.847 127.381 300 300"/><polygon class="cls-4" points="300 300 -143.846 243.069 -136.55 201.694 300 300"/><polygon class="cls-4" points="300 300 -146.989 321.006 -146.989 278.993 300 300"/><polygon class="cls-4" points="300 300 -136.55 398.306 -143.846 356.931 300 300"/><polygon class="cls-4" points="300 300 -112.847 472.619 -127.216 433.14 300 300"/><polygon class="cls-4" points="300 300 -76.6 541.686 -97.607 505.302 300 300"/><polygon class="cls-4" points="300 300 -28.91 603.411 -55.916 571.227 300 300"/><polygon class="cls-4" points="300 300 28.773 655.916 -3.411 628.91 300 300"/><polygon class="cls-4" points="300 300 94.698 697.607 58.314 676.6 300 300"/><polygon class="cls-4" points="300 300 166.861 727.216 127.381 712.847 300 300"/><polygon class="cls-4" points="300 300 243.069 743.845 201.694 736.55 300 300"/><polygon class="cls-4" points="300 300 321.006 746.989 278.994 746.989 300 300"/><polygon class="cls-4" points="300 300 398.306 736.55 356.931 743.845 300 300"/><polygon class="cls-4" points="300 300 472.619 712.847 433.139 727.216 300 300"/><polygon class="cls-4" points="300 300 541.686 676.6 505.302 697.607 300 300"/><polygon class="cls-4" points="300 300 603.411 628.91 571.227 655.916 300 300"/><polygon class="cls-4" points="300 300 655.916 571.227 628.91 603.411 300 300"/><polygon class="cls-4" points="300 300 697.607 505.302 676.6 541.686 300 300"/><polygon class="cls-4" points="300 300 727.216 433.14 712.847 472.619 300 300"/><polygon class="cls-4" points="300 300 743.845 356.931 736.55 398.306 300 300"/><polygon class="cls-4" points="300 300 746.989 278.993 746.989 321.006 300 300"/><polygon class="cls-4" points="300 300 736.55 201.694 743.845 243.069 300 300"/><polygon class="cls-4" points="300 300 712.847 127.381 727.216 166.86 300 300"/><polygon class="cls-4" points="300 300 676.6 58.314 697.607 94.698 300 300"/><polygon class="cls-4" points="300 300 628.91 -3.411 655.916 28.773 300 300"/><polygon class="cls-4" points="300 300 571.227 -55.916 603.411 -28.911 300 300"/><polygon class="cls-4" points="300 300 505.302 -97.607 541.686 -76.6 300 300"/><polygon class="cls-4" points="300 300 433.139 -127.216 472.619 -112.847 300 300"/><polygon class="cls-4" points="300 300 356.931 -143.846 398.306 -136.55 300 300"/></g></svg>